<mxfile host="app.diagrams.net" agent="Mozilla/5.0 (Windows NT 10.0; Win64; x64) AppleWebKit/537.36 (KHTML, like Gecko) Chrome/131.0.0.0 Safari/537.36" version="26.0.4">
  <diagram name="Page-1" id="DMUbacr2jc4u99fHg1ai">
    <mxGraphModel dx="1050" dy="522" grid="1" gridSize="10" guides="1" tooltips="1" connect="1" arrows="1" fold="1" page="1" pageScale="1" pageWidth="850" pageHeight="1100" math="0" shadow="0">
      <root>
        <mxCell id="0" />
        <mxCell id="1" parent="0" />
        <mxCell id="fCmMyijWZVC8BJxwTFxm-1" value="DEPTH_AREAS" style="shape=table;startSize=25;container=1;collapsible=0;childLayout=tableLayout;fixedRows=1;rowLines=1;fontStyle=1;align=center;resizeLast=1;" vertex="1" parent="1">
          <mxGeometry x="27" y="353" width="148" height="91" as="geometry" />
        </mxCell>
        <mxCell id="fCmMyijWZVC8BJxwTFxm-2" style="shape=tableRow;horizontal=0;startSize=0;swimlaneHead=0;swimlaneBody=0;fillColor=none;collapsible=0;dropTarget=0;points=[[0,0.5],[1,0.5]];portConstraint=eastwest;top=0;left=0;right=0;bottom=0;" vertex="1" parent="fCmMyijWZVC8BJxwTFxm-1">
          <mxGeometry y="25" width="148" height="22" as="geometry" />
        </mxCell>
        <mxCell id="fCmMyijWZVC8BJxwTFxm-3" value="int" style="shape=partialRectangle;connectable=0;fillColor=none;top=0;left=0;bottom=0;right=0;align=left;spacingLeft=2;overflow=hidden;fontSize=11;" vertex="1" parent="fCmMyijWZVC8BJxwTFxm-2">
          <mxGeometry width="54" height="22" as="geometry">
            <mxRectangle width="54" height="22" as="alternateBounds" />
          </mxGeometry>
        </mxCell>
        <mxCell id="fCmMyijWZVC8BJxwTFxm-4" value="id" style="shape=partialRectangle;connectable=0;fillColor=none;top=0;left=0;bottom=0;right=0;align=left;spacingLeft=2;overflow=hidden;fontSize=11;" vertex="1" parent="fCmMyijWZVC8BJxwTFxm-2">
          <mxGeometry x="54" width="94" height="22" as="geometry">
            <mxRectangle width="94" height="22" as="alternateBounds" />
          </mxGeometry>
        </mxCell>
        <mxCell id="fCmMyijWZVC8BJxwTFxm-5" style="shape=tableRow;horizontal=0;startSize=0;swimlaneHead=0;swimlaneBody=0;fillColor=none;collapsible=0;dropTarget=0;points=[[0,0.5],[1,0.5]];portConstraint=eastwest;top=0;left=0;right=0;bottom=0;" vertex="1" parent="fCmMyijWZVC8BJxwTFxm-1">
          <mxGeometry y="47" width="148" height="22" as="geometry" />
        </mxCell>
        <mxCell id="fCmMyijWZVC8BJxwTFxm-6" value="decimal" style="shape=partialRectangle;connectable=0;fillColor=none;top=0;left=0;bottom=0;right=0;align=left;spacingLeft=2;overflow=hidden;fontSize=11;" vertex="1" parent="fCmMyijWZVC8BJxwTFxm-5">
          <mxGeometry width="54" height="22" as="geometry">
            <mxRectangle width="54" height="22" as="alternateBounds" />
          </mxGeometry>
        </mxCell>
        <mxCell id="fCmMyijWZVC8BJxwTFxm-7" value="depth_value" style="shape=partialRectangle;connectable=0;fillColor=none;top=0;left=0;bottom=0;right=0;align=left;spacingLeft=2;overflow=hidden;fontSize=11;" vertex="1" parent="fCmMyijWZVC8BJxwTFxm-5">
          <mxGeometry x="54" width="94" height="22" as="geometry">
            <mxRectangle width="94" height="22" as="alternateBounds" />
          </mxGeometry>
        </mxCell>
        <mxCell id="fCmMyijWZVC8BJxwTFxm-8" style="shape=tableRow;horizontal=0;startSize=0;swimlaneHead=0;swimlaneBody=0;fillColor=none;collapsible=0;dropTarget=0;points=[[0,0.5],[1,0.5]];portConstraint=eastwest;top=0;left=0;right=0;bottom=0;" vertex="1" parent="fCmMyijWZVC8BJxwTFxm-1">
          <mxGeometry y="69" width="148" height="22" as="geometry" />
        </mxCell>
        <mxCell id="fCmMyijWZVC8BJxwTFxm-9" value="timestamp" style="shape=partialRectangle;connectable=0;fillColor=none;top=0;left=0;bottom=0;right=0;align=left;spacingLeft=2;overflow=hidden;fontSize=11;" vertex="1" parent="fCmMyijWZVC8BJxwTFxm-8">
          <mxGeometry width="54" height="22" as="geometry">
            <mxRectangle width="54" height="22" as="alternateBounds" />
          </mxGeometry>
        </mxCell>
        <mxCell id="fCmMyijWZVC8BJxwTFxm-10" value="created_at" style="shape=partialRectangle;connectable=0;fillColor=none;top=0;left=0;bottom=0;right=0;align=left;spacingLeft=2;overflow=hidden;fontSize=11;" vertex="1" parent="fCmMyijWZVC8BJxwTFxm-8">
          <mxGeometry x="54" width="94" height="22" as="geometry">
            <mxRectangle width="94" height="22" as="alternateBounds" />
          </mxGeometry>
        </mxCell>
        <mxCell id="fCmMyijWZVC8BJxwTFxm-11" value="DEPTH_COORDINATES" style="shape=table;startSize=25;container=1;collapsible=0;childLayout=tableLayout;fixedRows=1;rowLines=1;fontStyle=1;align=center;resizeLast=1;" vertex="1" parent="1">
          <mxGeometry x="20" y="31" width="162" height="135" as="geometry" />
        </mxCell>
        <mxCell id="fCmMyijWZVC8BJxwTFxm-12" style="shape=tableRow;horizontal=0;startSize=0;swimlaneHead=0;swimlaneBody=0;fillColor=none;collapsible=0;dropTarget=0;points=[[0,0.5],[1,0.5]];portConstraint=eastwest;top=0;left=0;right=0;bottom=0;" vertex="1" parent="fCmMyijWZVC8BJxwTFxm-11">
          <mxGeometry y="25" width="162" height="22" as="geometry" />
        </mxCell>
        <mxCell id="fCmMyijWZVC8BJxwTFxm-13" value="int" style="shape=partialRectangle;connectable=0;fillColor=none;top=0;left=0;bottom=0;right=0;align=left;spacingLeft=2;overflow=hidden;fontSize=11;" vertex="1" parent="fCmMyijWZVC8BJxwTFxm-12">
          <mxGeometry width="42" height="22" as="geometry">
            <mxRectangle width="42" height="22" as="alternateBounds" />
          </mxGeometry>
        </mxCell>
        <mxCell id="fCmMyijWZVC8BJxwTFxm-14" value="id" style="shape=partialRectangle;connectable=0;fillColor=none;top=0;left=0;bottom=0;right=0;align=left;spacingLeft=2;overflow=hidden;fontSize=11;" vertex="1" parent="fCmMyijWZVC8BJxwTFxm-12">
          <mxGeometry x="42" width="120" height="22" as="geometry">
            <mxRectangle width="120" height="22" as="alternateBounds" />
          </mxGeometry>
        </mxCell>
        <mxCell id="fCmMyijWZVC8BJxwTFxm-15" style="shape=tableRow;horizontal=0;startSize=0;swimlaneHead=0;swimlaneBody=0;fillColor=none;collapsible=0;dropTarget=0;points=[[0,0.5],[1,0.5]];portConstraint=eastwest;top=0;left=0;right=0;bottom=0;" vertex="1" parent="fCmMyijWZVC8BJxwTFxm-11">
          <mxGeometry y="47" width="162" height="22" as="geometry" />
        </mxCell>
        <mxCell id="fCmMyijWZVC8BJxwTFxm-16" value="int" style="shape=partialRectangle;connectable=0;fillColor=none;top=0;left=0;bottom=0;right=0;align=left;spacingLeft=2;overflow=hidden;fontSize=11;" vertex="1" parent="fCmMyijWZVC8BJxwTFxm-15">
          <mxGeometry width="42" height="22" as="geometry">
            <mxRectangle width="42" height="22" as="alternateBounds" />
          </mxGeometry>
        </mxCell>
        <mxCell id="fCmMyijWZVC8BJxwTFxm-17" value="area_id" style="shape=partialRectangle;connectable=0;fillColor=none;top=0;left=0;bottom=0;right=0;align=left;spacingLeft=2;overflow=hidden;fontSize=11;" vertex="1" parent="fCmMyijWZVC8BJxwTFxm-15">
          <mxGeometry x="42" width="120" height="22" as="geometry">
            <mxRectangle width="120" height="22" as="alternateBounds" />
          </mxGeometry>
        </mxCell>
        <mxCell id="fCmMyijWZVC8BJxwTFxm-18" style="shape=tableRow;horizontal=0;startSize=0;swimlaneHead=0;swimlaneBody=0;fillColor=none;collapsible=0;dropTarget=0;points=[[0,0.5],[1,0.5]];portConstraint=eastwest;top=0;left=0;right=0;bottom=0;" vertex="1" parent="fCmMyijWZVC8BJxwTFxm-11">
          <mxGeometry y="69" width="162" height="22" as="geometry" />
        </mxCell>
        <mxCell id="fCmMyijWZVC8BJxwTFxm-19" value="decimal" style="shape=partialRectangle;connectable=0;fillColor=none;top=0;left=0;bottom=0;right=0;align=left;spacingLeft=2;overflow=hidden;fontSize=11;" vertex="1" parent="fCmMyijWZVC8BJxwTFxm-18">
          <mxGeometry width="42" height="22" as="geometry">
            <mxRectangle width="42" height="22" as="alternateBounds" />
          </mxGeometry>
        </mxCell>
        <mxCell id="fCmMyijWZVC8BJxwTFxm-20" value="latitude" style="shape=partialRectangle;connectable=0;fillColor=none;top=0;left=0;bottom=0;right=0;align=left;spacingLeft=2;overflow=hidden;fontSize=11;" vertex="1" parent="fCmMyijWZVC8BJxwTFxm-18">
          <mxGeometry x="42" width="120" height="22" as="geometry">
            <mxRectangle width="120" height="22" as="alternateBounds" />
          </mxGeometry>
        </mxCell>
        <mxCell id="fCmMyijWZVC8BJxwTFxm-21" style="shape=tableRow;horizontal=0;startSize=0;swimlaneHead=0;swimlaneBody=0;fillColor=none;collapsible=0;dropTarget=0;points=[[0,0.5],[1,0.5]];portConstraint=eastwest;top=0;left=0;right=0;bottom=0;" vertex="1" parent="fCmMyijWZVC8BJxwTFxm-11">
          <mxGeometry y="91" width="162" height="22" as="geometry" />
        </mxCell>
        <mxCell id="fCmMyijWZVC8BJxwTFxm-22" value="decimal" style="shape=partialRectangle;connectable=0;fillColor=none;top=0;left=0;bottom=0;right=0;align=left;spacingLeft=2;overflow=hidden;fontSize=11;" vertex="1" parent="fCmMyijWZVC8BJxwTFxm-21">
          <mxGeometry width="42" height="22" as="geometry">
            <mxRectangle width="42" height="22" as="alternateBounds" />
          </mxGeometry>
        </mxCell>
        <mxCell id="fCmMyijWZVC8BJxwTFxm-23" value="longitude" style="shape=partialRectangle;connectable=0;fillColor=none;top=0;left=0;bottom=0;right=0;align=left;spacingLeft=2;overflow=hidden;fontSize=11;" vertex="1" parent="fCmMyijWZVC8BJxwTFxm-21">
          <mxGeometry x="42" width="120" height="22" as="geometry">
            <mxRectangle width="120" height="22" as="alternateBounds" />
          </mxGeometry>
        </mxCell>
        <mxCell id="fCmMyijWZVC8BJxwTFxm-24" style="shape=tableRow;horizontal=0;startSize=0;swimlaneHead=0;swimlaneBody=0;fillColor=none;collapsible=0;dropTarget=0;points=[[0,0.5],[1,0.5]];portConstraint=eastwest;top=0;left=0;right=0;bottom=0;" vertex="1" parent="fCmMyijWZVC8BJxwTFxm-11">
          <mxGeometry y="113" width="162" height="22" as="geometry" />
        </mxCell>
        <mxCell id="fCmMyijWZVC8BJxwTFxm-25" value="int" style="shape=partialRectangle;connectable=0;fillColor=none;top=0;left=0;bottom=0;right=0;align=left;spacingLeft=2;overflow=hidden;fontSize=11;" vertex="1" parent="fCmMyijWZVC8BJxwTFxm-24">
          <mxGeometry width="42" height="22" as="geometry">
            <mxRectangle width="42" height="22" as="alternateBounds" />
          </mxGeometry>
        </mxCell>
        <mxCell id="fCmMyijWZVC8BJxwTFxm-26" value="sequence_number" style="shape=partialRectangle;connectable=0;fillColor=none;top=0;left=0;bottom=0;right=0;align=left;spacingLeft=2;overflow=hidden;fontSize=11;" vertex="1" parent="fCmMyijWZVC8BJxwTFxm-24">
          <mxGeometry x="42" width="120" height="22" as="geometry">
            <mxRectangle width="120" height="22" as="alternateBounds" />
          </mxGeometry>
        </mxCell>
        <mxCell id="fCmMyijWZVC8BJxwTFxm-27" value="GEOFENCES" style="shape=table;startSize=25;container=1;collapsible=0;childLayout=tableLayout;fixedRows=1;rowLines=1;fontStyle=1;align=center;resizeLast=1;" vertex="1" parent="1">
          <mxGeometry x="293" y="320" width="145" height="157" as="geometry" />
        </mxCell>
        <mxCell id="fCmMyijWZVC8BJxwTFxm-28" style="shape=tableRow;horizontal=0;startSize=0;swimlaneHead=0;swimlaneBody=0;fillColor=none;collapsible=0;dropTarget=0;points=[[0,0.5],[1,0.5]];portConstraint=eastwest;top=0;left=0;right=0;bottom=0;" vertex="1" parent="fCmMyijWZVC8BJxwTFxm-27">
          <mxGeometry y="25" width="145" height="22" as="geometry" />
        </mxCell>
        <mxCell id="fCmMyijWZVC8BJxwTFxm-29" value="int" style="shape=partialRectangle;connectable=0;fillColor=none;top=0;left=0;bottom=0;right=0;align=left;spacingLeft=2;overflow=hidden;fontSize=11;" vertex="1" parent="fCmMyijWZVC8BJxwTFxm-28">
          <mxGeometry width="54" height="22" as="geometry">
            <mxRectangle width="54" height="22" as="alternateBounds" />
          </mxGeometry>
        </mxCell>
        <mxCell id="fCmMyijWZVC8BJxwTFxm-30" value="id" style="shape=partialRectangle;connectable=0;fillColor=none;top=0;left=0;bottom=0;right=0;align=left;spacingLeft=2;overflow=hidden;fontSize=11;" vertex="1" parent="fCmMyijWZVC8BJxwTFxm-28">
          <mxGeometry x="54" width="91" height="22" as="geometry">
            <mxRectangle width="91" height="22" as="alternateBounds" />
          </mxGeometry>
        </mxCell>
        <mxCell id="fCmMyijWZVC8BJxwTFxm-31" style="shape=tableRow;horizontal=0;startSize=0;swimlaneHead=0;swimlaneBody=0;fillColor=none;collapsible=0;dropTarget=0;points=[[0,0.5],[1,0.5]];portConstraint=eastwest;top=0;left=0;right=0;bottom=0;" vertex="1" parent="fCmMyijWZVC8BJxwTFxm-27">
          <mxGeometry y="47" width="145" height="22" as="geometry" />
        </mxCell>
        <mxCell id="fCmMyijWZVC8BJxwTFxm-32" value="varchar" style="shape=partialRectangle;connectable=0;fillColor=none;top=0;left=0;bottom=0;right=0;align=left;spacingLeft=2;overflow=hidden;fontSize=11;" vertex="1" parent="fCmMyijWZVC8BJxwTFxm-31">
          <mxGeometry width="54" height="22" as="geometry">
            <mxRectangle width="54" height="22" as="alternateBounds" />
          </mxGeometry>
        </mxCell>
        <mxCell id="fCmMyijWZVC8BJxwTFxm-33" value="name" style="shape=partialRectangle;connectable=0;fillColor=none;top=0;left=0;bottom=0;right=0;align=left;spacingLeft=2;overflow=hidden;fontSize=11;" vertex="1" parent="fCmMyijWZVC8BJxwTFxm-31">
          <mxGeometry x="54" width="91" height="22" as="geometry">
            <mxRectangle width="91" height="22" as="alternateBounds" />
          </mxGeometry>
        </mxCell>
        <mxCell id="fCmMyijWZVC8BJxwTFxm-34" style="shape=tableRow;horizontal=0;startSize=0;swimlaneHead=0;swimlaneBody=0;fillColor=none;collapsible=0;dropTarget=0;points=[[0,0.5],[1,0.5]];portConstraint=eastwest;top=0;left=0;right=0;bottom=0;" vertex="1" parent="fCmMyijWZVC8BJxwTFxm-27">
          <mxGeometry y="69" width="145" height="22" as="geometry" />
        </mxCell>
        <mxCell id="fCmMyijWZVC8BJxwTFxm-35" value="text" style="shape=partialRectangle;connectable=0;fillColor=none;top=0;left=0;bottom=0;right=0;align=left;spacingLeft=2;overflow=hidden;fontSize=11;" vertex="1" parent="fCmMyijWZVC8BJxwTFxm-34">
          <mxGeometry width="54" height="22" as="geometry">
            <mxRectangle width="54" height="22" as="alternateBounds" />
          </mxGeometry>
        </mxCell>
        <mxCell id="fCmMyijWZVC8BJxwTFxm-36" value="description" style="shape=partialRectangle;connectable=0;fillColor=none;top=0;left=0;bottom=0;right=0;align=left;spacingLeft=2;overflow=hidden;fontSize=11;" vertex="1" parent="fCmMyijWZVC8BJxwTFxm-34">
          <mxGeometry x="54" width="91" height="22" as="geometry">
            <mxRectangle width="91" height="22" as="alternateBounds" />
          </mxGeometry>
        </mxCell>
        <mxCell id="fCmMyijWZVC8BJxwTFxm-37" style="shape=tableRow;horizontal=0;startSize=0;swimlaneHead=0;swimlaneBody=0;fillColor=none;collapsible=0;dropTarget=0;points=[[0,0.5],[1,0.5]];portConstraint=eastwest;top=0;left=0;right=0;bottom=0;" vertex="1" parent="fCmMyijWZVC8BJxwTFxm-27">
          <mxGeometry y="91" width="145" height="22" as="geometry" />
        </mxCell>
        <mxCell id="fCmMyijWZVC8BJxwTFxm-38" value="enum" style="shape=partialRectangle;connectable=0;fillColor=none;top=0;left=0;bottom=0;right=0;align=left;spacingLeft=2;overflow=hidden;fontSize=11;" vertex="1" parent="fCmMyijWZVC8BJxwTFxm-37">
          <mxGeometry width="54" height="22" as="geometry">
            <mxRectangle width="54" height="22" as="alternateBounds" />
          </mxGeometry>
        </mxCell>
        <mxCell id="fCmMyijWZVC8BJxwTFxm-39" value="type" style="shape=partialRectangle;connectable=0;fillColor=none;top=0;left=0;bottom=0;right=0;align=left;spacingLeft=2;overflow=hidden;fontSize=11;" vertex="1" parent="fCmMyijWZVC8BJxwTFxm-37">
          <mxGeometry x="54" width="91" height="22" as="geometry">
            <mxRectangle width="91" height="22" as="alternateBounds" />
          </mxGeometry>
        </mxCell>
        <mxCell id="fCmMyijWZVC8BJxwTFxm-40" style="shape=tableRow;horizontal=0;startSize=0;swimlaneHead=0;swimlaneBody=0;fillColor=none;collapsible=0;dropTarget=0;points=[[0,0.5],[1,0.5]];portConstraint=eastwest;top=0;left=0;right=0;bottom=0;" vertex="1" parent="fCmMyijWZVC8BJxwTFxm-27">
          <mxGeometry y="113" width="145" height="22" as="geometry" />
        </mxCell>
        <mxCell id="fCmMyijWZVC8BJxwTFxm-41" value="timestamp" style="shape=partialRectangle;connectable=0;fillColor=none;top=0;left=0;bottom=0;right=0;align=left;spacingLeft=2;overflow=hidden;fontSize=11;" vertex="1" parent="fCmMyijWZVC8BJxwTFxm-40">
          <mxGeometry width="54" height="22" as="geometry">
            <mxRectangle width="54" height="22" as="alternateBounds" />
          </mxGeometry>
        </mxCell>
        <mxCell id="fCmMyijWZVC8BJxwTFxm-42" value="created_at" style="shape=partialRectangle;connectable=0;fillColor=none;top=0;left=0;bottom=0;right=0;align=left;spacingLeft=2;overflow=hidden;fontSize=11;" vertex="1" parent="fCmMyijWZVC8BJxwTFxm-40">
          <mxGeometry x="54" width="91" height="22" as="geometry">
            <mxRectangle width="91" height="22" as="alternateBounds" />
          </mxGeometry>
        </mxCell>
        <mxCell id="fCmMyijWZVC8BJxwTFxm-43" style="shape=tableRow;horizontal=0;startSize=0;swimlaneHead=0;swimlaneBody=0;fillColor=none;collapsible=0;dropTarget=0;points=[[0,0.5],[1,0.5]];portConstraint=eastwest;top=0;left=0;right=0;bottom=0;" vertex="1" parent="fCmMyijWZVC8BJxwTFxm-27">
          <mxGeometry y="135" width="145" height="22" as="geometry" />
        </mxCell>
        <mxCell id="fCmMyijWZVC8BJxwTFxm-44" value="timestamp" style="shape=partialRectangle;connectable=0;fillColor=none;top=0;left=0;bottom=0;right=0;align=left;spacingLeft=2;overflow=hidden;fontSize=11;" vertex="1" parent="fCmMyijWZVC8BJxwTFxm-43">
          <mxGeometry width="54" height="22" as="geometry">
            <mxRectangle width="54" height="22" as="alternateBounds" />
          </mxGeometry>
        </mxCell>
        <mxCell id="fCmMyijWZVC8BJxwTFxm-45" value="updated_at" style="shape=partialRectangle;connectable=0;fillColor=none;top=0;left=0;bottom=0;right=0;align=left;spacingLeft=2;overflow=hidden;fontSize=11;" vertex="1" parent="fCmMyijWZVC8BJxwTFxm-43">
          <mxGeometry x="54" width="91" height="22" as="geometry">
            <mxRectangle width="91" height="22" as="alternateBounds" />
          </mxGeometry>
        </mxCell>
        <mxCell id="fCmMyijWZVC8BJxwTFxm-46" value="GEOFENCE_COORDINATES" style="shape=table;startSize=25;container=1;collapsible=0;childLayout=tableLayout;fixedRows=1;rowLines=1;fontStyle=1;align=center;resizeLast=1;" vertex="1" parent="1">
          <mxGeometry x="282" y="31" width="167" height="135" as="geometry" />
        </mxCell>
        <mxCell id="fCmMyijWZVC8BJxwTFxm-47" style="shape=tableRow;horizontal=0;startSize=0;swimlaneHead=0;swimlaneBody=0;fillColor=none;collapsible=0;dropTarget=0;points=[[0,0.5],[1,0.5]];portConstraint=eastwest;top=0;left=0;right=0;bottom=0;" vertex="1" parent="fCmMyijWZVC8BJxwTFxm-46">
          <mxGeometry y="25" width="167" height="22" as="geometry" />
        </mxCell>
        <mxCell id="fCmMyijWZVC8BJxwTFxm-48" value="int" style="shape=partialRectangle;connectable=0;fillColor=none;top=0;left=0;bottom=0;right=0;align=left;spacingLeft=2;overflow=hidden;fontSize=11;" vertex="1" parent="fCmMyijWZVC8BJxwTFxm-47">
          <mxGeometry width="42" height="22" as="geometry">
            <mxRectangle width="42" height="22" as="alternateBounds" />
          </mxGeometry>
        </mxCell>
        <mxCell id="fCmMyijWZVC8BJxwTFxm-49" value="id" style="shape=partialRectangle;connectable=0;fillColor=none;top=0;left=0;bottom=0;right=0;align=left;spacingLeft=2;overflow=hidden;fontSize=11;" vertex="1" parent="fCmMyijWZVC8BJxwTFxm-47">
          <mxGeometry x="42" width="125" height="22" as="geometry">
            <mxRectangle width="125" height="22" as="alternateBounds" />
          </mxGeometry>
        </mxCell>
        <mxCell id="fCmMyijWZVC8BJxwTFxm-50" style="shape=tableRow;horizontal=0;startSize=0;swimlaneHead=0;swimlaneBody=0;fillColor=none;collapsible=0;dropTarget=0;points=[[0,0.5],[1,0.5]];portConstraint=eastwest;top=0;left=0;right=0;bottom=0;" vertex="1" parent="fCmMyijWZVC8BJxwTFxm-46">
          <mxGeometry y="47" width="167" height="22" as="geometry" />
        </mxCell>
        <mxCell id="fCmMyijWZVC8BJxwTFxm-51" value="int" style="shape=partialRectangle;connectable=0;fillColor=none;top=0;left=0;bottom=0;right=0;align=left;spacingLeft=2;overflow=hidden;fontSize=11;" vertex="1" parent="fCmMyijWZVC8BJxwTFxm-50">
          <mxGeometry width="42" height="22" as="geometry">
            <mxRectangle width="42" height="22" as="alternateBounds" />
          </mxGeometry>
        </mxCell>
        <mxCell id="fCmMyijWZVC8BJxwTFxm-52" value="geofence_id" style="shape=partialRectangle;connectable=0;fillColor=none;top=0;left=0;bottom=0;right=0;align=left;spacingLeft=2;overflow=hidden;fontSize=11;" vertex="1" parent="fCmMyijWZVC8BJxwTFxm-50">
          <mxGeometry x="42" width="125" height="22" as="geometry">
            <mxRectangle width="125" height="22" as="alternateBounds" />
          </mxGeometry>
        </mxCell>
        <mxCell id="fCmMyijWZVC8BJxwTFxm-53" style="shape=tableRow;horizontal=0;startSize=0;swimlaneHead=0;swimlaneBody=0;fillColor=none;collapsible=0;dropTarget=0;points=[[0,0.5],[1,0.5]];portConstraint=eastwest;top=0;left=0;right=0;bottom=0;" vertex="1" parent="fCmMyijWZVC8BJxwTFxm-46">
          <mxGeometry y="69" width="167" height="22" as="geometry" />
        </mxCell>
        <mxCell id="fCmMyijWZVC8BJxwTFxm-54" value="decimal" style="shape=partialRectangle;connectable=0;fillColor=none;top=0;left=0;bottom=0;right=0;align=left;spacingLeft=2;overflow=hidden;fontSize=11;" vertex="1" parent="fCmMyijWZVC8BJxwTFxm-53">
          <mxGeometry width="42" height="22" as="geometry">
            <mxRectangle width="42" height="22" as="alternateBounds" />
          </mxGeometry>
        </mxCell>
        <mxCell id="fCmMyijWZVC8BJxwTFxm-55" value="latitude" style="shape=partialRectangle;connectable=0;fillColor=none;top=0;left=0;bottom=0;right=0;align=left;spacingLeft=2;overflow=hidden;fontSize=11;" vertex="1" parent="fCmMyijWZVC8BJxwTFxm-53">
          <mxGeometry x="42" width="125" height="22" as="geometry">
            <mxRectangle width="125" height="22" as="alternateBounds" />
          </mxGeometry>
        </mxCell>
        <mxCell id="fCmMyijWZVC8BJxwTFxm-56" style="shape=tableRow;horizontal=0;startSize=0;swimlaneHead=0;swimlaneBody=0;fillColor=none;collapsible=0;dropTarget=0;points=[[0,0.5],[1,0.5]];portConstraint=eastwest;top=0;left=0;right=0;bottom=0;" vertex="1" parent="fCmMyijWZVC8BJxwTFxm-46">
          <mxGeometry y="91" width="167" height="22" as="geometry" />
        </mxCell>
        <mxCell id="fCmMyijWZVC8BJxwTFxm-57" value="decimal" style="shape=partialRectangle;connectable=0;fillColor=none;top=0;left=0;bottom=0;right=0;align=left;spacingLeft=2;overflow=hidden;fontSize=11;" vertex="1" parent="fCmMyijWZVC8BJxwTFxm-56">
          <mxGeometry width="42" height="22" as="geometry">
            <mxRectangle width="42" height="22" as="alternateBounds" />
          </mxGeometry>
        </mxCell>
        <mxCell id="fCmMyijWZVC8BJxwTFxm-58" value="longitude" style="shape=partialRectangle;connectable=0;fillColor=none;top=0;left=0;bottom=0;right=0;align=left;spacingLeft=2;overflow=hidden;fontSize=11;" vertex="1" parent="fCmMyijWZVC8BJxwTFxm-56">
          <mxGeometry x="42" width="125" height="22" as="geometry">
            <mxRectangle width="125" height="22" as="alternateBounds" />
          </mxGeometry>
        </mxCell>
        <mxCell id="fCmMyijWZVC8BJxwTFxm-59" style="shape=tableRow;horizontal=0;startSize=0;swimlaneHead=0;swimlaneBody=0;fillColor=none;collapsible=0;dropTarget=0;points=[[0,0.5],[1,0.5]];portConstraint=eastwest;top=0;left=0;right=0;bottom=0;" vertex="1" parent="fCmMyijWZVC8BJxwTFxm-46">
          <mxGeometry y="113" width="167" height="22" as="geometry" />
        </mxCell>
        <mxCell id="fCmMyijWZVC8BJxwTFxm-60" value="int" style="shape=partialRectangle;connectable=0;fillColor=none;top=0;left=0;bottom=0;right=0;align=left;spacingLeft=2;overflow=hidden;fontSize=11;" vertex="1" parent="fCmMyijWZVC8BJxwTFxm-59">
          <mxGeometry width="42" height="22" as="geometry">
            <mxRectangle width="42" height="22" as="alternateBounds" />
          </mxGeometry>
        </mxCell>
        <mxCell id="fCmMyijWZVC8BJxwTFxm-61" value="sequence" style="shape=partialRectangle;connectable=0;fillColor=none;top=0;left=0;bottom=0;right=0;align=left;spacingLeft=2;overflow=hidden;fontSize=11;" vertex="1" parent="fCmMyijWZVC8BJxwTFxm-59">
          <mxGeometry x="42" width="125" height="22" as="geometry">
            <mxRectangle width="125" height="22" as="alternateBounds" />
          </mxGeometry>
        </mxCell>
        <mxCell id="fCmMyijWZVC8BJxwTFxm-62" value="GPS_LOGS" style="shape=table;startSize=25;container=1;collapsible=0;childLayout=tableLayout;fixedRows=1;rowLines=1;fontStyle=1;align=center;resizeLast=1;" vertex="1" parent="1">
          <mxGeometry x="1180" y="31" width="141" height="135" as="geometry" />
        </mxCell>
        <mxCell id="fCmMyijWZVC8BJxwTFxm-63" style="shape=tableRow;horizontal=0;startSize=0;swimlaneHead=0;swimlaneBody=0;fillColor=none;collapsible=0;dropTarget=0;points=[[0,0.5],[1,0.5]];portConstraint=eastwest;top=0;left=0;right=0;bottom=0;" vertex="1" parent="fCmMyijWZVC8BJxwTFxm-62">
          <mxGeometry y="25" width="141" height="22" as="geometry" />
        </mxCell>
        <mxCell id="fCmMyijWZVC8BJxwTFxm-64" value="int" style="shape=partialRectangle;connectable=0;fillColor=none;top=0;left=0;bottom=0;right=0;align=left;spacingLeft=2;overflow=hidden;fontSize=11;" vertex="1" parent="fCmMyijWZVC8BJxwTFxm-63">
          <mxGeometry width="54" height="22" as="geometry">
            <mxRectangle width="54" height="22" as="alternateBounds" />
          </mxGeometry>
        </mxCell>
        <mxCell id="fCmMyijWZVC8BJxwTFxm-65" value="id" style="shape=partialRectangle;connectable=0;fillColor=none;top=0;left=0;bottom=0;right=0;align=left;spacingLeft=2;overflow=hidden;fontSize=11;" vertex="1" parent="fCmMyijWZVC8BJxwTFxm-63">
          <mxGeometry x="54" width="87" height="22" as="geometry">
            <mxRectangle width="87" height="22" as="alternateBounds" />
          </mxGeometry>
        </mxCell>
        <mxCell id="fCmMyijWZVC8BJxwTFxm-66" style="shape=tableRow;horizontal=0;startSize=0;swimlaneHead=0;swimlaneBody=0;fillColor=none;collapsible=0;dropTarget=0;points=[[0,0.5],[1,0.5]];portConstraint=eastwest;top=0;left=0;right=0;bottom=0;" vertex="1" parent="fCmMyijWZVC8BJxwTFxm-62">
          <mxGeometry y="47" width="141" height="22" as="geometry" />
        </mxCell>
        <mxCell id="fCmMyijWZVC8BJxwTFxm-67" value="int" style="shape=partialRectangle;connectable=0;fillColor=none;top=0;left=0;bottom=0;right=0;align=left;spacingLeft=2;overflow=hidden;fontSize=11;" vertex="1" parent="fCmMyijWZVC8BJxwTFxm-66">
          <mxGeometry width="54" height="22" as="geometry">
            <mxRectangle width="54" height="22" as="alternateBounds" />
          </mxGeometry>
        </mxCell>
        <mxCell id="fCmMyijWZVC8BJxwTFxm-68" value="trip_id" style="shape=partialRectangle;connectable=0;fillColor=none;top=0;left=0;bottom=0;right=0;align=left;spacingLeft=2;overflow=hidden;fontSize=11;" vertex="1" parent="fCmMyijWZVC8BJxwTFxm-66">
          <mxGeometry x="54" width="87" height="22" as="geometry">
            <mxRectangle width="87" height="22" as="alternateBounds" />
          </mxGeometry>
        </mxCell>
        <mxCell id="fCmMyijWZVC8BJxwTFxm-69" style="shape=tableRow;horizontal=0;startSize=0;swimlaneHead=0;swimlaneBody=0;fillColor=none;collapsible=0;dropTarget=0;points=[[0,0.5],[1,0.5]];portConstraint=eastwest;top=0;left=0;right=0;bottom=0;" vertex="1" parent="fCmMyijWZVC8BJxwTFxm-62">
          <mxGeometry y="69" width="141" height="22" as="geometry" />
        </mxCell>
        <mxCell id="fCmMyijWZVC8BJxwTFxm-70" value="decimal" style="shape=partialRectangle;connectable=0;fillColor=none;top=0;left=0;bottom=0;right=0;align=left;spacingLeft=2;overflow=hidden;fontSize=11;" vertex="1" parent="fCmMyijWZVC8BJxwTFxm-69">
          <mxGeometry width="54" height="22" as="geometry">
            <mxRectangle width="54" height="22" as="alternateBounds" />
          </mxGeometry>
        </mxCell>
        <mxCell id="fCmMyijWZVC8BJxwTFxm-71" value="latitude" style="shape=partialRectangle;connectable=0;fillColor=none;top=0;left=0;bottom=0;right=0;align=left;spacingLeft=2;overflow=hidden;fontSize=11;" vertex="1" parent="fCmMyijWZVC8BJxwTFxm-69">
          <mxGeometry x="54" width="87" height="22" as="geometry">
            <mxRectangle width="87" height="22" as="alternateBounds" />
          </mxGeometry>
        </mxCell>
        <mxCell id="fCmMyijWZVC8BJxwTFxm-72" style="shape=tableRow;horizontal=0;startSize=0;swimlaneHead=0;swimlaneBody=0;fillColor=none;collapsible=0;dropTarget=0;points=[[0,0.5],[1,0.5]];portConstraint=eastwest;top=0;left=0;right=0;bottom=0;" vertex="1" parent="fCmMyijWZVC8BJxwTFxm-62">
          <mxGeometry y="91" width="141" height="22" as="geometry" />
        </mxCell>
        <mxCell id="fCmMyijWZVC8BJxwTFxm-73" value="decimal" style="shape=partialRectangle;connectable=0;fillColor=none;top=0;left=0;bottom=0;right=0;align=left;spacingLeft=2;overflow=hidden;fontSize=11;" vertex="1" parent="fCmMyijWZVC8BJxwTFxm-72">
          <mxGeometry width="54" height="22" as="geometry">
            <mxRectangle width="54" height="22" as="alternateBounds" />
          </mxGeometry>
        </mxCell>
        <mxCell id="fCmMyijWZVC8BJxwTFxm-74" value="longitude" style="shape=partialRectangle;connectable=0;fillColor=none;top=0;left=0;bottom=0;right=0;align=left;spacingLeft=2;overflow=hidden;fontSize=11;" vertex="1" parent="fCmMyijWZVC8BJxwTFxm-72">
          <mxGeometry x="54" width="87" height="22" as="geometry">
            <mxRectangle width="87" height="22" as="alternateBounds" />
          </mxGeometry>
        </mxCell>
        <mxCell id="fCmMyijWZVC8BJxwTFxm-75" style="shape=tableRow;horizontal=0;startSize=0;swimlaneHead=0;swimlaneBody=0;fillColor=none;collapsible=0;dropTarget=0;points=[[0,0.5],[1,0.5]];portConstraint=eastwest;top=0;left=0;right=0;bottom=0;" vertex="1" parent="fCmMyijWZVC8BJxwTFxm-62">
          <mxGeometry y="113" width="141" height="22" as="geometry" />
        </mxCell>
        <mxCell id="fCmMyijWZVC8BJxwTFxm-76" value="timestamp" style="shape=partialRectangle;connectable=0;fillColor=none;top=0;left=0;bottom=0;right=0;align=left;spacingLeft=2;overflow=hidden;fontSize=11;" vertex="1" parent="fCmMyijWZVC8BJxwTFxm-75">
          <mxGeometry width="54" height="22" as="geometry">
            <mxRectangle width="54" height="22" as="alternateBounds" />
          </mxGeometry>
        </mxCell>
        <mxCell id="fCmMyijWZVC8BJxwTFxm-77" value="timestamp" style="shape=partialRectangle;connectable=0;fillColor=none;top=0;left=0;bottom=0;right=0;align=left;spacingLeft=2;overflow=hidden;fontSize=11;" vertex="1" parent="fCmMyijWZVC8BJxwTFxm-75">
          <mxGeometry x="54" width="87" height="22" as="geometry">
            <mxRectangle width="87" height="22" as="alternateBounds" />
          </mxGeometry>
        </mxCell>
        <mxCell id="fCmMyijWZVC8BJxwTFxm-78" value="PATHS" style="shape=table;startSize=25;container=1;collapsible=0;childLayout=tableLayout;fixedRows=1;rowLines=1;fontStyle=1;align=center;resizeLast=1;" vertex="1" parent="1">
          <mxGeometry x="565" y="364" width="142" height="68" as="geometry" />
        </mxCell>
        <mxCell id="fCmMyijWZVC8BJxwTFxm-79" style="shape=tableRow;horizontal=0;startSize=0;swimlaneHead=0;swimlaneBody=0;fillColor=none;collapsible=0;dropTarget=0;points=[[0,0.5],[1,0.5]];portConstraint=eastwest;top=0;left=0;right=0;bottom=0;" vertex="1" parent="fCmMyijWZVC8BJxwTFxm-78">
          <mxGeometry y="25" width="142" height="21" as="geometry" />
        </mxCell>
        <mxCell id="fCmMyijWZVC8BJxwTFxm-80" value="int" style="shape=partialRectangle;connectable=0;fillColor=none;top=0;left=0;bottom=0;right=0;align=left;spacingLeft=2;overflow=hidden;fontSize=11;" vertex="1" parent="fCmMyijWZVC8BJxwTFxm-79">
          <mxGeometry width="54" height="21" as="geometry">
            <mxRectangle width="54" height="21" as="alternateBounds" />
          </mxGeometry>
        </mxCell>
        <mxCell id="fCmMyijWZVC8BJxwTFxm-81" value="id" style="shape=partialRectangle;connectable=0;fillColor=none;top=0;left=0;bottom=0;right=0;align=left;spacingLeft=2;overflow=hidden;fontSize=11;" vertex="1" parent="fCmMyijWZVC8BJxwTFxm-79">
          <mxGeometry x="54" width="88" height="21" as="geometry">
            <mxRectangle width="88" height="21" as="alternateBounds" />
          </mxGeometry>
        </mxCell>
        <mxCell id="fCmMyijWZVC8BJxwTFxm-82" style="shape=tableRow;horizontal=0;startSize=0;swimlaneHead=0;swimlaneBody=0;fillColor=none;collapsible=0;dropTarget=0;points=[[0,0.5],[1,0.5]];portConstraint=eastwest;top=0;left=0;right=0;bottom=0;" vertex="1" parent="fCmMyijWZVC8BJxwTFxm-78">
          <mxGeometry y="46" width="142" height="21" as="geometry" />
        </mxCell>
        <mxCell id="fCmMyijWZVC8BJxwTFxm-83" value="timestamp" style="shape=partialRectangle;connectable=0;fillColor=none;top=0;left=0;bottom=0;right=0;align=left;spacingLeft=2;overflow=hidden;fontSize=11;" vertex="1" parent="fCmMyijWZVC8BJxwTFxm-82">
          <mxGeometry width="54" height="21" as="geometry">
            <mxRectangle width="54" height="21" as="alternateBounds" />
          </mxGeometry>
        </mxCell>
        <mxCell id="fCmMyijWZVC8BJxwTFxm-84" value="created_at" style="shape=partialRectangle;connectable=0;fillColor=none;top=0;left=0;bottom=0;right=0;align=left;spacingLeft=2;overflow=hidden;fontSize=11;" vertex="1" parent="fCmMyijWZVC8BJxwTFxm-82">
          <mxGeometry x="54" width="88" height="21" as="geometry">
            <mxRectangle width="88" height="21" as="alternateBounds" />
          </mxGeometry>
        </mxCell>
        <mxCell id="fCmMyijWZVC8BJxwTFxm-85" value="PATH_COORDINATES" style="shape=table;startSize=25;container=1;collapsible=0;childLayout=tableLayout;fixedRows=1;rowLines=1;fontStyle=1;align=center;resizeLast=1;" vertex="1" parent="1">
          <mxGeometry x="549" y="20" width="175" height="157" as="geometry" />
        </mxCell>
        <mxCell id="fCmMyijWZVC8BJxwTFxm-86" style="shape=tableRow;horizontal=0;startSize=0;swimlaneHead=0;swimlaneBody=0;fillColor=none;collapsible=0;dropTarget=0;points=[[0,0.5],[1,0.5]];portConstraint=eastwest;top=0;left=0;right=0;bottom=0;" vertex="1" parent="fCmMyijWZVC8BJxwTFxm-85">
          <mxGeometry y="25" width="175" height="22" as="geometry" />
        </mxCell>
        <mxCell id="fCmMyijWZVC8BJxwTFxm-87" value="int" style="shape=partialRectangle;connectable=0;fillColor=none;top=0;left=0;bottom=0;right=0;align=left;spacingLeft=2;overflow=hidden;fontSize=11;" vertex="1" parent="fCmMyijWZVC8BJxwTFxm-86">
          <mxGeometry width="54" height="22" as="geometry">
            <mxRectangle width="54" height="22" as="alternateBounds" />
          </mxGeometry>
        </mxCell>
        <mxCell id="fCmMyijWZVC8BJxwTFxm-88" value="id" style="shape=partialRectangle;connectable=0;fillColor=none;top=0;left=0;bottom=0;right=0;align=left;spacingLeft=2;overflow=hidden;fontSize=11;" vertex="1" parent="fCmMyijWZVC8BJxwTFxm-86">
          <mxGeometry x="54" width="121" height="22" as="geometry">
            <mxRectangle width="121" height="22" as="alternateBounds" />
          </mxGeometry>
        </mxCell>
        <mxCell id="fCmMyijWZVC8BJxwTFxm-89" style="shape=tableRow;horizontal=0;startSize=0;swimlaneHead=0;swimlaneBody=0;fillColor=none;collapsible=0;dropTarget=0;points=[[0,0.5],[1,0.5]];portConstraint=eastwest;top=0;left=0;right=0;bottom=0;" vertex="1" parent="fCmMyijWZVC8BJxwTFxm-85">
          <mxGeometry y="47" width="175" height="22" as="geometry" />
        </mxCell>
        <mxCell id="fCmMyijWZVC8BJxwTFxm-90" value="int" style="shape=partialRectangle;connectable=0;fillColor=none;top=0;left=0;bottom=0;right=0;align=left;spacingLeft=2;overflow=hidden;fontSize=11;" vertex="1" parent="fCmMyijWZVC8BJxwTFxm-89">
          <mxGeometry width="54" height="22" as="geometry">
            <mxRectangle width="54" height="22" as="alternateBounds" />
          </mxGeometry>
        </mxCell>
        <mxCell id="fCmMyijWZVC8BJxwTFxm-91" value="path_id" style="shape=partialRectangle;connectable=0;fillColor=none;top=0;left=0;bottom=0;right=0;align=left;spacingLeft=2;overflow=hidden;fontSize=11;" vertex="1" parent="fCmMyijWZVC8BJxwTFxm-89">
          <mxGeometry x="54" width="121" height="22" as="geometry">
            <mxRectangle width="121" height="22" as="alternateBounds" />
          </mxGeometry>
        </mxCell>
        <mxCell id="fCmMyijWZVC8BJxwTFxm-92" style="shape=tableRow;horizontal=0;startSize=0;swimlaneHead=0;swimlaneBody=0;fillColor=none;collapsible=0;dropTarget=0;points=[[0,0.5],[1,0.5]];portConstraint=eastwest;top=0;left=0;right=0;bottom=0;" vertex="1" parent="fCmMyijWZVC8BJxwTFxm-85">
          <mxGeometry y="69" width="175" height="22" as="geometry" />
        </mxCell>
        <mxCell id="fCmMyijWZVC8BJxwTFxm-93" value="decimal" style="shape=partialRectangle;connectable=0;fillColor=none;top=0;left=0;bottom=0;right=0;align=left;spacingLeft=2;overflow=hidden;fontSize=11;" vertex="1" parent="fCmMyijWZVC8BJxwTFxm-92">
          <mxGeometry width="54" height="22" as="geometry">
            <mxRectangle width="54" height="22" as="alternateBounds" />
          </mxGeometry>
        </mxCell>
        <mxCell id="fCmMyijWZVC8BJxwTFxm-94" value="latitude" style="shape=partialRectangle;connectable=0;fillColor=none;top=0;left=0;bottom=0;right=0;align=left;spacingLeft=2;overflow=hidden;fontSize=11;" vertex="1" parent="fCmMyijWZVC8BJxwTFxm-92">
          <mxGeometry x="54" width="121" height="22" as="geometry">
            <mxRectangle width="121" height="22" as="alternateBounds" />
          </mxGeometry>
        </mxCell>
        <mxCell id="fCmMyijWZVC8BJxwTFxm-95" style="shape=tableRow;horizontal=0;startSize=0;swimlaneHead=0;swimlaneBody=0;fillColor=none;collapsible=0;dropTarget=0;points=[[0,0.5],[1,0.5]];portConstraint=eastwest;top=0;left=0;right=0;bottom=0;" vertex="1" parent="fCmMyijWZVC8BJxwTFxm-85">
          <mxGeometry y="91" width="175" height="22" as="geometry" />
        </mxCell>
        <mxCell id="fCmMyijWZVC8BJxwTFxm-96" value="decimal" style="shape=partialRectangle;connectable=0;fillColor=none;top=0;left=0;bottom=0;right=0;align=left;spacingLeft=2;overflow=hidden;fontSize=11;" vertex="1" parent="fCmMyijWZVC8BJxwTFxm-95">
          <mxGeometry width="54" height="22" as="geometry">
            <mxRectangle width="54" height="22" as="alternateBounds" />
          </mxGeometry>
        </mxCell>
        <mxCell id="fCmMyijWZVC8BJxwTFxm-97" value="longitude" style="shape=partialRectangle;connectable=0;fillColor=none;top=0;left=0;bottom=0;right=0;align=left;spacingLeft=2;overflow=hidden;fontSize=11;" vertex="1" parent="fCmMyijWZVC8BJxwTFxm-95">
          <mxGeometry x="54" width="121" height="22" as="geometry">
            <mxRectangle width="121" height="22" as="alternateBounds" />
          </mxGeometry>
        </mxCell>
        <mxCell id="fCmMyijWZVC8BJxwTFxm-98" style="shape=tableRow;horizontal=0;startSize=0;swimlaneHead=0;swimlaneBody=0;fillColor=none;collapsible=0;dropTarget=0;points=[[0,0.5],[1,0.5]];portConstraint=eastwest;top=0;left=0;right=0;bottom=0;" vertex="1" parent="fCmMyijWZVC8BJxwTFxm-85">
          <mxGeometry y="113" width="175" height="22" as="geometry" />
        </mxCell>
        <mxCell id="fCmMyijWZVC8BJxwTFxm-99" value="int" style="shape=partialRectangle;connectable=0;fillColor=none;top=0;left=0;bottom=0;right=0;align=left;spacingLeft=2;overflow=hidden;fontSize=11;" vertex="1" parent="fCmMyijWZVC8BJxwTFxm-98">
          <mxGeometry width="54" height="22" as="geometry">
            <mxRectangle width="54" height="22" as="alternateBounds" />
          </mxGeometry>
        </mxCell>
        <mxCell id="fCmMyijWZVC8BJxwTFxm-100" value="sequence_number" style="shape=partialRectangle;connectable=0;fillColor=none;top=0;left=0;bottom=0;right=0;align=left;spacingLeft=2;overflow=hidden;fontSize=11;" vertex="1" parent="fCmMyijWZVC8BJxwTFxm-98">
          <mxGeometry x="54" width="121" height="22" as="geometry">
            <mxRectangle width="121" height="22" as="alternateBounds" />
          </mxGeometry>
        </mxCell>
        <mxCell id="fCmMyijWZVC8BJxwTFxm-101" style="shape=tableRow;horizontal=0;startSize=0;swimlaneHead=0;swimlaneBody=0;fillColor=none;collapsible=0;dropTarget=0;points=[[0,0.5],[1,0.5]];portConstraint=eastwest;top=0;left=0;right=0;bottom=0;" vertex="1" parent="fCmMyijWZVC8BJxwTFxm-85">
          <mxGeometry y="135" width="175" height="22" as="geometry" />
        </mxCell>
        <mxCell id="fCmMyijWZVC8BJxwTFxm-102" value="timestamp" style="shape=partialRectangle;connectable=0;fillColor=none;top=0;left=0;bottom=0;right=0;align=left;spacingLeft=2;overflow=hidden;fontSize=11;" vertex="1" parent="fCmMyijWZVC8BJxwTFxm-101">
          <mxGeometry width="54" height="22" as="geometry">
            <mxRectangle width="54" height="22" as="alternateBounds" />
          </mxGeometry>
        </mxCell>
        <mxCell id="fCmMyijWZVC8BJxwTFxm-103" value="created_at" style="shape=partialRectangle;connectable=0;fillColor=none;top=0;left=0;bottom=0;right=0;align=left;spacingLeft=2;overflow=hidden;fontSize=11;" vertex="1" parent="fCmMyijWZVC8BJxwTFxm-101">
          <mxGeometry x="54" width="121" height="22" as="geometry">
            <mxRectangle width="121" height="22" as="alternateBounds" />
          </mxGeometry>
        </mxCell>
        <mxCell id="fCmMyijWZVC8BJxwTFxm-104" value="ROUTES" style="shape=table;startSize=25;container=1;collapsible=0;childLayout=tableLayout;fixedRows=1;rowLines=1;fontStyle=1;align=center;resizeLast=1;" vertex="1" parent="1">
          <mxGeometry x="982" y="674" width="169" height="179" as="geometry" />
        </mxCell>
        <mxCell id="fCmMyijWZVC8BJxwTFxm-105" style="shape=tableRow;horizontal=0;startSize=0;swimlaneHead=0;swimlaneBody=0;fillColor=none;collapsible=0;dropTarget=0;points=[[0,0.5],[1,0.5]];portConstraint=eastwest;top=0;left=0;right=0;bottom=0;" vertex="1" parent="fCmMyijWZVC8BJxwTFxm-104">
          <mxGeometry y="25" width="169" height="22" as="geometry" />
        </mxCell>
        <mxCell id="fCmMyijWZVC8BJxwTFxm-106" value="int" style="shape=partialRectangle;connectable=0;fillColor=none;top=0;left=0;bottom=0;right=0;align=left;spacingLeft=2;overflow=hidden;fontSize=11;" vertex="1" parent="fCmMyijWZVC8BJxwTFxm-105">
          <mxGeometry width="54" height="22" as="geometry">
            <mxRectangle width="54" height="22" as="alternateBounds" />
          </mxGeometry>
        </mxCell>
        <mxCell id="fCmMyijWZVC8BJxwTFxm-107" value="id" style="shape=partialRectangle;connectable=0;fillColor=none;top=0;left=0;bottom=0;right=0;align=left;spacingLeft=2;overflow=hidden;fontSize=11;" vertex="1" parent="fCmMyijWZVC8BJxwTFxm-105">
          <mxGeometry x="54" width="115" height="22" as="geometry">
            <mxRectangle width="115" height="22" as="alternateBounds" />
          </mxGeometry>
        </mxCell>
        <mxCell id="fCmMyijWZVC8BJxwTFxm-108" style="shape=tableRow;horizontal=0;startSize=0;swimlaneHead=0;swimlaneBody=0;fillColor=none;collapsible=0;dropTarget=0;points=[[0,0.5],[1,0.5]];portConstraint=eastwest;top=0;left=0;right=0;bottom=0;" vertex="1" parent="fCmMyijWZVC8BJxwTFxm-104">
          <mxGeometry y="47" width="169" height="22" as="geometry" />
        </mxCell>
        <mxCell id="fCmMyijWZVC8BJxwTFxm-109" value="varchar" style="shape=partialRectangle;connectable=0;fillColor=none;top=0;left=0;bottom=0;right=0;align=left;spacingLeft=2;overflow=hidden;fontSize=11;" vertex="1" parent="fCmMyijWZVC8BJxwTFxm-108">
          <mxGeometry width="54" height="22" as="geometry">
            <mxRectangle width="54" height="22" as="alternateBounds" />
          </mxGeometry>
        </mxCell>
        <mxCell id="fCmMyijWZVC8BJxwTFxm-110" value="name" style="shape=partialRectangle;connectable=0;fillColor=none;top=0;left=0;bottom=0;right=0;align=left;spacingLeft=2;overflow=hidden;fontSize=11;" vertex="1" parent="fCmMyijWZVC8BJxwTFxm-108">
          <mxGeometry x="54" width="115" height="22" as="geometry">
            <mxRectangle width="115" height="22" as="alternateBounds" />
          </mxGeometry>
        </mxCell>
        <mxCell id="fCmMyijWZVC8BJxwTFxm-111" style="shape=tableRow;horizontal=0;startSize=0;swimlaneHead=0;swimlaneBody=0;fillColor=none;collapsible=0;dropTarget=0;points=[[0,0.5],[1,0.5]];portConstraint=eastwest;top=0;left=0;right=0;bottom=0;" vertex="1" parent="fCmMyijWZVC8BJxwTFxm-104">
          <mxGeometry y="69" width="169" height="22" as="geometry" />
        </mxCell>
        <mxCell id="fCmMyijWZVC8BJxwTFxm-112" value="text" style="shape=partialRectangle;connectable=0;fillColor=none;top=0;left=0;bottom=0;right=0;align=left;spacingLeft=2;overflow=hidden;fontSize=11;" vertex="1" parent="fCmMyijWZVC8BJxwTFxm-111">
          <mxGeometry width="54" height="22" as="geometry">
            <mxRectangle width="54" height="22" as="alternateBounds" />
          </mxGeometry>
        </mxCell>
        <mxCell id="fCmMyijWZVC8BJxwTFxm-113" value="description" style="shape=partialRectangle;connectable=0;fillColor=none;top=0;left=0;bottom=0;right=0;align=left;spacingLeft=2;overflow=hidden;fontSize=11;" vertex="1" parent="fCmMyijWZVC8BJxwTFxm-111">
          <mxGeometry x="54" width="115" height="22" as="geometry">
            <mxRectangle width="115" height="22" as="alternateBounds" />
          </mxGeometry>
        </mxCell>
        <mxCell id="fCmMyijWZVC8BJxwTFxm-114" style="shape=tableRow;horizontal=0;startSize=0;swimlaneHead=0;swimlaneBody=0;fillColor=none;collapsible=0;dropTarget=0;points=[[0,0.5],[1,0.5]];portConstraint=eastwest;top=0;left=0;right=0;bottom=0;" vertex="1" parent="fCmMyijWZVC8BJxwTFxm-104">
          <mxGeometry y="91" width="169" height="22" as="geometry" />
        </mxCell>
        <mxCell id="fCmMyijWZVC8BJxwTFxm-115" value="decimal" style="shape=partialRectangle;connectable=0;fillColor=none;top=0;left=0;bottom=0;right=0;align=left;spacingLeft=2;overflow=hidden;fontSize=11;" vertex="1" parent="fCmMyijWZVC8BJxwTFxm-114">
          <mxGeometry width="54" height="22" as="geometry">
            <mxRectangle width="54" height="22" as="alternateBounds" />
          </mxGeometry>
        </mxCell>
        <mxCell id="fCmMyijWZVC8BJxwTFxm-116" value="safety_score" style="shape=partialRectangle;connectable=0;fillColor=none;top=0;left=0;bottom=0;right=0;align=left;spacingLeft=2;overflow=hidden;fontSize=11;" vertex="1" parent="fCmMyijWZVC8BJxwTFxm-114">
          <mxGeometry x="54" width="115" height="22" as="geometry">
            <mxRectangle width="115" height="22" as="alternateBounds" />
          </mxGeometry>
        </mxCell>
        <mxCell id="fCmMyijWZVC8BJxwTFxm-117" style="shape=tableRow;horizontal=0;startSize=0;swimlaneHead=0;swimlaneBody=0;fillColor=none;collapsible=0;dropTarget=0;points=[[0,0.5],[1,0.5]];portConstraint=eastwest;top=0;left=0;right=0;bottom=0;" vertex="1" parent="fCmMyijWZVC8BJxwTFxm-104">
          <mxGeometry y="113" width="169" height="22" as="geometry" />
        </mxCell>
        <mxCell id="fCmMyijWZVC8BJxwTFxm-118" value="int" style="shape=partialRectangle;connectable=0;fillColor=none;top=0;left=0;bottom=0;right=0;align=left;spacingLeft=2;overflow=hidden;fontSize=11;" vertex="1" parent="fCmMyijWZVC8BJxwTFxm-117">
          <mxGeometry width="54" height="22" as="geometry">
            <mxRectangle width="54" height="22" as="alternateBounds" />
          </mxGeometry>
        </mxCell>
        <mxCell id="fCmMyijWZVC8BJxwTFxm-119" value="frequency_count" style="shape=partialRectangle;connectable=0;fillColor=none;top=0;left=0;bottom=0;right=0;align=left;spacingLeft=2;overflow=hidden;fontSize=11;" vertex="1" parent="fCmMyijWZVC8BJxwTFxm-117">
          <mxGeometry x="54" width="115" height="22" as="geometry">
            <mxRectangle width="115" height="22" as="alternateBounds" />
          </mxGeometry>
        </mxCell>
        <mxCell id="fCmMyijWZVC8BJxwTFxm-120" style="shape=tableRow;horizontal=0;startSize=0;swimlaneHead=0;swimlaneBody=0;fillColor=none;collapsible=0;dropTarget=0;points=[[0,0.5],[1,0.5]];portConstraint=eastwest;top=0;left=0;right=0;bottom=0;" vertex="1" parent="fCmMyijWZVC8BJxwTFxm-104">
          <mxGeometry y="135" width="169" height="22" as="geometry" />
        </mxCell>
        <mxCell id="fCmMyijWZVC8BJxwTFxm-121" value="timestamp" style="shape=partialRectangle;connectable=0;fillColor=none;top=0;left=0;bottom=0;right=0;align=left;spacingLeft=2;overflow=hidden;fontSize=11;" vertex="1" parent="fCmMyijWZVC8BJxwTFxm-120">
          <mxGeometry width="54" height="22" as="geometry">
            <mxRectangle width="54" height="22" as="alternateBounds" />
          </mxGeometry>
        </mxCell>
        <mxCell id="fCmMyijWZVC8BJxwTFxm-122" value="created_at" style="shape=partialRectangle;connectable=0;fillColor=none;top=0;left=0;bottom=0;right=0;align=left;spacingLeft=2;overflow=hidden;fontSize=11;" vertex="1" parent="fCmMyijWZVC8BJxwTFxm-120">
          <mxGeometry x="54" width="115" height="22" as="geometry">
            <mxRectangle width="115" height="22" as="alternateBounds" />
          </mxGeometry>
        </mxCell>
        <mxCell id="fCmMyijWZVC8BJxwTFxm-123" style="shape=tableRow;horizontal=0;startSize=0;swimlaneHead=0;swimlaneBody=0;fillColor=none;collapsible=0;dropTarget=0;points=[[0,0.5],[1,0.5]];portConstraint=eastwest;top=0;left=0;right=0;bottom=0;" vertex="1" parent="fCmMyijWZVC8BJxwTFxm-104">
          <mxGeometry y="157" width="169" height="22" as="geometry" />
        </mxCell>
        <mxCell id="fCmMyijWZVC8BJxwTFxm-124" value="timestamp" style="shape=partialRectangle;connectable=0;fillColor=none;top=0;left=0;bottom=0;right=0;align=left;spacingLeft=2;overflow=hidden;fontSize=11;" vertex="1" parent="fCmMyijWZVC8BJxwTFxm-123">
          <mxGeometry width="54" height="22" as="geometry">
            <mxRectangle width="54" height="22" as="alternateBounds" />
          </mxGeometry>
        </mxCell>
        <mxCell id="fCmMyijWZVC8BJxwTFxm-125" value="updated_at" style="shape=partialRectangle;connectable=0;fillColor=none;top=0;left=0;bottom=0;right=0;align=left;spacingLeft=2;overflow=hidden;fontSize=11;" vertex="1" parent="fCmMyijWZVC8BJxwTFxm-123">
          <mxGeometry x="54" width="115" height="22" as="geometry">
            <mxRectangle width="115" height="22" as="alternateBounds" />
          </mxGeometry>
        </mxCell>
        <mxCell id="fCmMyijWZVC8BJxwTFxm-126" value="ROUTE_POINTS" style="shape=table;startSize=25;container=1;collapsible=0;childLayout=tableLayout;fixedRows=1;rowLines=1;fontStyle=1;align=center;resizeLast=1;" vertex="1" parent="1">
          <mxGeometry x="807" y="309" width="162" height="179" as="geometry" />
        </mxCell>
        <mxCell id="fCmMyijWZVC8BJxwTFxm-127" style="shape=tableRow;horizontal=0;startSize=0;swimlaneHead=0;swimlaneBody=0;fillColor=none;collapsible=0;dropTarget=0;points=[[0,0.5],[1,0.5]];portConstraint=eastwest;top=0;left=0;right=0;bottom=0;" vertex="1" parent="fCmMyijWZVC8BJxwTFxm-126">
          <mxGeometry y="25" width="162" height="22" as="geometry" />
        </mxCell>
        <mxCell id="fCmMyijWZVC8BJxwTFxm-128" value="int" style="shape=partialRectangle;connectable=0;fillColor=none;top=0;left=0;bottom=0;right=0;align=left;spacingLeft=2;overflow=hidden;fontSize=11;" vertex="1" parent="fCmMyijWZVC8BJxwTFxm-127">
          <mxGeometry width="42" height="22" as="geometry">
            <mxRectangle width="42" height="22" as="alternateBounds" />
          </mxGeometry>
        </mxCell>
        <mxCell id="fCmMyijWZVC8BJxwTFxm-129" value="id" style="shape=partialRectangle;connectable=0;fillColor=none;top=0;left=0;bottom=0;right=0;align=left;spacingLeft=2;overflow=hidden;fontSize=11;" vertex="1" parent="fCmMyijWZVC8BJxwTFxm-127">
          <mxGeometry x="42" width="120" height="22" as="geometry">
            <mxRectangle width="120" height="22" as="alternateBounds" />
          </mxGeometry>
        </mxCell>
        <mxCell id="fCmMyijWZVC8BJxwTFxm-130" style="shape=tableRow;horizontal=0;startSize=0;swimlaneHead=0;swimlaneBody=0;fillColor=none;collapsible=0;dropTarget=0;points=[[0,0.5],[1,0.5]];portConstraint=eastwest;top=0;left=0;right=0;bottom=0;" vertex="1" parent="fCmMyijWZVC8BJxwTFxm-126">
          <mxGeometry y="47" width="162" height="22" as="geometry" />
        </mxCell>
        <mxCell id="fCmMyijWZVC8BJxwTFxm-131" value="int" style="shape=partialRectangle;connectable=0;fillColor=none;top=0;left=0;bottom=0;right=0;align=left;spacingLeft=2;overflow=hidden;fontSize=11;" vertex="1" parent="fCmMyijWZVC8BJxwTFxm-130">
          <mxGeometry width="42" height="22" as="geometry">
            <mxRectangle width="42" height="22" as="alternateBounds" />
          </mxGeometry>
        </mxCell>
        <mxCell id="fCmMyijWZVC8BJxwTFxm-132" value="route_id" style="shape=partialRectangle;connectable=0;fillColor=none;top=0;left=0;bottom=0;right=0;align=left;spacingLeft=2;overflow=hidden;fontSize=11;" vertex="1" parent="fCmMyijWZVC8BJxwTFxm-130">
          <mxGeometry x="42" width="120" height="22" as="geometry">
            <mxRectangle width="120" height="22" as="alternateBounds" />
          </mxGeometry>
        </mxCell>
        <mxCell id="fCmMyijWZVC8BJxwTFxm-133" style="shape=tableRow;horizontal=0;startSize=0;swimlaneHead=0;swimlaneBody=0;fillColor=none;collapsible=0;dropTarget=0;points=[[0,0.5],[1,0.5]];portConstraint=eastwest;top=0;left=0;right=0;bottom=0;" vertex="1" parent="fCmMyijWZVC8BJxwTFxm-126">
          <mxGeometry y="69" width="162" height="22" as="geometry" />
        </mxCell>
        <mxCell id="fCmMyijWZVC8BJxwTFxm-134" value="decimal" style="shape=partialRectangle;connectable=0;fillColor=none;top=0;left=0;bottom=0;right=0;align=left;spacingLeft=2;overflow=hidden;fontSize=11;" vertex="1" parent="fCmMyijWZVC8BJxwTFxm-133">
          <mxGeometry width="42" height="22" as="geometry">
            <mxRectangle width="42" height="22" as="alternateBounds" />
          </mxGeometry>
        </mxCell>
        <mxCell id="fCmMyijWZVC8BJxwTFxm-135" value="latitude" style="shape=partialRectangle;connectable=0;fillColor=none;top=0;left=0;bottom=0;right=0;align=left;spacingLeft=2;overflow=hidden;fontSize=11;" vertex="1" parent="fCmMyijWZVC8BJxwTFxm-133">
          <mxGeometry x="42" width="120" height="22" as="geometry">
            <mxRectangle width="120" height="22" as="alternateBounds" />
          </mxGeometry>
        </mxCell>
        <mxCell id="fCmMyijWZVC8BJxwTFxm-136" style="shape=tableRow;horizontal=0;startSize=0;swimlaneHead=0;swimlaneBody=0;fillColor=none;collapsible=0;dropTarget=0;points=[[0,0.5],[1,0.5]];portConstraint=eastwest;top=0;left=0;right=0;bottom=0;" vertex="1" parent="fCmMyijWZVC8BJxwTFxm-126">
          <mxGeometry y="91" width="162" height="22" as="geometry" />
        </mxCell>
        <mxCell id="fCmMyijWZVC8BJxwTFxm-137" value="decimal" style="shape=partialRectangle;connectable=0;fillColor=none;top=0;left=0;bottom=0;right=0;align=left;spacingLeft=2;overflow=hidden;fontSize=11;" vertex="1" parent="fCmMyijWZVC8BJxwTFxm-136">
          <mxGeometry width="42" height="22" as="geometry">
            <mxRectangle width="42" height="22" as="alternateBounds" />
          </mxGeometry>
        </mxCell>
        <mxCell id="fCmMyijWZVC8BJxwTFxm-138" value="longitude" style="shape=partialRectangle;connectable=0;fillColor=none;top=0;left=0;bottom=0;right=0;align=left;spacingLeft=2;overflow=hidden;fontSize=11;" vertex="1" parent="fCmMyijWZVC8BJxwTFxm-136">
          <mxGeometry x="42" width="120" height="22" as="geometry">
            <mxRectangle width="120" height="22" as="alternateBounds" />
          </mxGeometry>
        </mxCell>
        <mxCell id="fCmMyijWZVC8BJxwTFxm-139" style="shape=tableRow;horizontal=0;startSize=0;swimlaneHead=0;swimlaneBody=0;fillColor=none;collapsible=0;dropTarget=0;points=[[0,0.5],[1,0.5]];portConstraint=eastwest;top=0;left=0;right=0;bottom=0;" vertex="1" parent="fCmMyijWZVC8BJxwTFxm-126">
          <mxGeometry y="113" width="162" height="22" as="geometry" />
        </mxCell>
        <mxCell id="fCmMyijWZVC8BJxwTFxm-140" value="int" style="shape=partialRectangle;connectable=0;fillColor=none;top=0;left=0;bottom=0;right=0;align=left;spacingLeft=2;overflow=hidden;fontSize=11;" vertex="1" parent="fCmMyijWZVC8BJxwTFxm-139">
          <mxGeometry width="42" height="22" as="geometry">
            <mxRectangle width="42" height="22" as="alternateBounds" />
          </mxGeometry>
        </mxCell>
        <mxCell id="fCmMyijWZVC8BJxwTFxm-141" value="waypoint_id" style="shape=partialRectangle;connectable=0;fillColor=none;top=0;left=0;bottom=0;right=0;align=left;spacingLeft=2;overflow=hidden;fontSize=11;" vertex="1" parent="fCmMyijWZVC8BJxwTFxm-139">
          <mxGeometry x="42" width="120" height="22" as="geometry">
            <mxRectangle width="120" height="22" as="alternateBounds" />
          </mxGeometry>
        </mxCell>
        <mxCell id="fCmMyijWZVC8BJxwTFxm-142" style="shape=tableRow;horizontal=0;startSize=0;swimlaneHead=0;swimlaneBody=0;fillColor=none;collapsible=0;dropTarget=0;points=[[0,0.5],[1,0.5]];portConstraint=eastwest;top=0;left=0;right=0;bottom=0;" vertex="1" parent="fCmMyijWZVC8BJxwTFxm-126">
          <mxGeometry y="135" width="162" height="22" as="geometry" />
        </mxCell>
        <mxCell id="fCmMyijWZVC8BJxwTFxm-143" value="int" style="shape=partialRectangle;connectable=0;fillColor=none;top=0;left=0;bottom=0;right=0;align=left;spacingLeft=2;overflow=hidden;fontSize=11;" vertex="1" parent="fCmMyijWZVC8BJxwTFxm-142">
          <mxGeometry width="42" height="22" as="geometry">
            <mxRectangle width="42" height="22" as="alternateBounds" />
          </mxGeometry>
        </mxCell>
        <mxCell id="fCmMyijWZVC8BJxwTFxm-144" value="sequence_number" style="shape=partialRectangle;connectable=0;fillColor=none;top=0;left=0;bottom=0;right=0;align=left;spacingLeft=2;overflow=hidden;fontSize=11;" vertex="1" parent="fCmMyijWZVC8BJxwTFxm-142">
          <mxGeometry x="42" width="120" height="22" as="geometry">
            <mxRectangle width="120" height="22" as="alternateBounds" />
          </mxGeometry>
        </mxCell>
        <mxCell id="fCmMyijWZVC8BJxwTFxm-145" style="shape=tableRow;horizontal=0;startSize=0;swimlaneHead=0;swimlaneBody=0;fillColor=none;collapsible=0;dropTarget=0;points=[[0,0.5],[1,0.5]];portConstraint=eastwest;top=0;left=0;right=0;bottom=0;" vertex="1" parent="fCmMyijWZVC8BJxwTFxm-126">
          <mxGeometry y="157" width="162" height="22" as="geometry" />
        </mxCell>
        <mxCell id="fCmMyijWZVC8BJxwTFxm-146" value="decimal" style="shape=partialRectangle;connectable=0;fillColor=none;top=0;left=0;bottom=0;right=0;align=left;spacingLeft=2;overflow=hidden;fontSize=11;" vertex="1" parent="fCmMyijWZVC8BJxwTFxm-145">
          <mxGeometry width="42" height="22" as="geometry">
            <mxRectangle width="42" height="22" as="alternateBounds" />
          </mxGeometry>
        </mxCell>
        <mxCell id="fCmMyijWZVC8BJxwTFxm-147" value="depth" style="shape=partialRectangle;connectable=0;fillColor=none;top=0;left=0;bottom=0;right=0;align=left;spacingLeft=2;overflow=hidden;fontSize=11;" vertex="1" parent="fCmMyijWZVC8BJxwTFxm-145">
          <mxGeometry x="42" width="120" height="22" as="geometry">
            <mxRectangle width="120" height="22" as="alternateBounds" />
          </mxGeometry>
        </mxCell>
        <mxCell id="fCmMyijWZVC8BJxwTFxm-148" value="SYSTEM_SETTINGS" style="shape=table;startSize=25;container=1;collapsible=0;childLayout=tableLayout;fixedRows=1;rowLines=1;fontStyle=1;align=center;resizeLast=1;" vertex="1" parent="1">
          <mxGeometry x="1421" y="42" width="153" height="113" as="geometry" />
        </mxCell>
        <mxCell id="fCmMyijWZVC8BJxwTFxm-149" style="shape=tableRow;horizontal=0;startSize=0;swimlaneHead=0;swimlaneBody=0;fillColor=none;collapsible=0;dropTarget=0;points=[[0,0.5],[1,0.5]];portConstraint=eastwest;top=0;left=0;right=0;bottom=0;" vertex="1" parent="fCmMyijWZVC8BJxwTFxm-148">
          <mxGeometry y="25" width="153" height="22" as="geometry" />
        </mxCell>
        <mxCell id="fCmMyijWZVC8BJxwTFxm-150" value="int" style="shape=partialRectangle;connectable=0;fillColor=none;top=0;left=0;bottom=0;right=0;align=left;spacingLeft=2;overflow=hidden;fontSize=11;" vertex="1" parent="fCmMyijWZVC8BJxwTFxm-149">
          <mxGeometry width="54" height="22" as="geometry">
            <mxRectangle width="54" height="22" as="alternateBounds" />
          </mxGeometry>
        </mxCell>
        <mxCell id="fCmMyijWZVC8BJxwTFxm-151" value="id" style="shape=partialRectangle;connectable=0;fillColor=none;top=0;left=0;bottom=0;right=0;align=left;spacingLeft=2;overflow=hidden;fontSize=11;" vertex="1" parent="fCmMyijWZVC8BJxwTFxm-149">
          <mxGeometry x="54" width="99" height="22" as="geometry">
            <mxRectangle width="99" height="22" as="alternateBounds" />
          </mxGeometry>
        </mxCell>
        <mxCell id="fCmMyijWZVC8BJxwTFxm-152" style="shape=tableRow;horizontal=0;startSize=0;swimlaneHead=0;swimlaneBody=0;fillColor=none;collapsible=0;dropTarget=0;points=[[0,0.5],[1,0.5]];portConstraint=eastwest;top=0;left=0;right=0;bottom=0;" vertex="1" parent="fCmMyijWZVC8BJxwTFxm-148">
          <mxGeometry y="47" width="153" height="22" as="geometry" />
        </mxCell>
        <mxCell id="fCmMyijWZVC8BJxwTFxm-153" value="varchar" style="shape=partialRectangle;connectable=0;fillColor=none;top=0;left=0;bottom=0;right=0;align=left;spacingLeft=2;overflow=hidden;fontSize=11;" vertex="1" parent="fCmMyijWZVC8BJxwTFxm-152">
          <mxGeometry width="54" height="22" as="geometry">
            <mxRectangle width="54" height="22" as="alternateBounds" />
          </mxGeometry>
        </mxCell>
        <mxCell id="fCmMyijWZVC8BJxwTFxm-154" value="setting_name" style="shape=partialRectangle;connectable=0;fillColor=none;top=0;left=0;bottom=0;right=0;align=left;spacingLeft=2;overflow=hidden;fontSize=11;" vertex="1" parent="fCmMyijWZVC8BJxwTFxm-152">
          <mxGeometry x="54" width="99" height="22" as="geometry">
            <mxRectangle width="99" height="22" as="alternateBounds" />
          </mxGeometry>
        </mxCell>
        <mxCell id="fCmMyijWZVC8BJxwTFxm-155" style="shape=tableRow;horizontal=0;startSize=0;swimlaneHead=0;swimlaneBody=0;fillColor=none;collapsible=0;dropTarget=0;points=[[0,0.5],[1,0.5]];portConstraint=eastwest;top=0;left=0;right=0;bottom=0;" vertex="1" parent="fCmMyijWZVC8BJxwTFxm-148">
          <mxGeometry y="69" width="153" height="22" as="geometry" />
        </mxCell>
        <mxCell id="fCmMyijWZVC8BJxwTFxm-156" value="varchar" style="shape=partialRectangle;connectable=0;fillColor=none;top=0;left=0;bottom=0;right=0;align=left;spacingLeft=2;overflow=hidden;fontSize=11;" vertex="1" parent="fCmMyijWZVC8BJxwTFxm-155">
          <mxGeometry width="54" height="22" as="geometry">
            <mxRectangle width="54" height="22" as="alternateBounds" />
          </mxGeometry>
        </mxCell>
        <mxCell id="fCmMyijWZVC8BJxwTFxm-157" value="setting_value" style="shape=partialRectangle;connectable=0;fillColor=none;top=0;left=0;bottom=0;right=0;align=left;spacingLeft=2;overflow=hidden;fontSize=11;" vertex="1" parent="fCmMyijWZVC8BJxwTFxm-155">
          <mxGeometry x="54" width="99" height="22" as="geometry">
            <mxRectangle width="99" height="22" as="alternateBounds" />
          </mxGeometry>
        </mxCell>
        <mxCell id="fCmMyijWZVC8BJxwTFxm-158" style="shape=tableRow;horizontal=0;startSize=0;swimlaneHead=0;swimlaneBody=0;fillColor=none;collapsible=0;dropTarget=0;points=[[0,0.5],[1,0.5]];portConstraint=eastwest;top=0;left=0;right=0;bottom=0;" vertex="1" parent="fCmMyijWZVC8BJxwTFxm-148">
          <mxGeometry y="91" width="153" height="22" as="geometry" />
        </mxCell>
        <mxCell id="fCmMyijWZVC8BJxwTFxm-159" value="timestamp" style="shape=partialRectangle;connectable=0;fillColor=none;top=0;left=0;bottom=0;right=0;align=left;spacingLeft=2;overflow=hidden;fontSize=11;" vertex="1" parent="fCmMyijWZVC8BJxwTFxm-158">
          <mxGeometry width="54" height="22" as="geometry">
            <mxRectangle width="54" height="22" as="alternateBounds" />
          </mxGeometry>
        </mxCell>
        <mxCell id="fCmMyijWZVC8BJxwTFxm-160" value="updated_at" style="shape=partialRectangle;connectable=0;fillColor=none;top=0;left=0;bottom=0;right=0;align=left;spacingLeft=2;overflow=hidden;fontSize=11;" vertex="1" parent="fCmMyijWZVC8BJxwTFxm-158">
          <mxGeometry x="54" width="99" height="22" as="geometry">
            <mxRectangle width="99" height="22" as="alternateBounds" />
          </mxGeometry>
        </mxCell>
        <mxCell id="fCmMyijWZVC8BJxwTFxm-161" value="TRIPS" style="shape=table;startSize=25;container=1;collapsible=0;childLayout=tableLayout;fixedRows=1;rowLines=1;fontStyle=1;align=center;resizeLast=1;" vertex="1" parent="1">
          <mxGeometry x="1171" y="276" width="159" height="245" as="geometry" />
        </mxCell>
        <mxCell id="fCmMyijWZVC8BJxwTFxm-162" style="shape=tableRow;horizontal=0;startSize=0;swimlaneHead=0;swimlaneBody=0;fillColor=none;collapsible=0;dropTarget=0;points=[[0,0.5],[1,0.5]];portConstraint=eastwest;top=0;left=0;right=0;bottom=0;" vertex="1" parent="fCmMyijWZVC8BJxwTFxm-161">
          <mxGeometry y="25" width="159" height="22" as="geometry" />
        </mxCell>
        <mxCell id="fCmMyijWZVC8BJxwTFxm-163" value="int" style="shape=partialRectangle;connectable=0;fillColor=none;top=0;left=0;bottom=0;right=0;align=left;spacingLeft=2;overflow=hidden;fontSize=11;" vertex="1" parent="fCmMyijWZVC8BJxwTFxm-162">
          <mxGeometry width="54" height="22" as="geometry">
            <mxRectangle width="54" height="22" as="alternateBounds" />
          </mxGeometry>
        </mxCell>
        <mxCell id="fCmMyijWZVC8BJxwTFxm-164" value="id" style="shape=partialRectangle;connectable=0;fillColor=none;top=0;left=0;bottom=0;right=0;align=left;spacingLeft=2;overflow=hidden;fontSize=11;" vertex="1" parent="fCmMyijWZVC8BJxwTFxm-162">
          <mxGeometry x="54" width="105" height="22" as="geometry">
            <mxRectangle width="105" height="22" as="alternateBounds" />
          </mxGeometry>
        </mxCell>
        <mxCell id="fCmMyijWZVC8BJxwTFxm-165" style="shape=tableRow;horizontal=0;startSize=0;swimlaneHead=0;swimlaneBody=0;fillColor=none;collapsible=0;dropTarget=0;points=[[0,0.5],[1,0.5]];portConstraint=eastwest;top=0;left=0;right=0;bottom=0;" vertex="1" parent="fCmMyijWZVC8BJxwTFxm-161">
          <mxGeometry y="47" width="159" height="22" as="geometry" />
        </mxCell>
        <mxCell id="fCmMyijWZVC8BJxwTFxm-166" value="int" style="shape=partialRectangle;connectable=0;fillColor=none;top=0;left=0;bottom=0;right=0;align=left;spacingLeft=2;overflow=hidden;fontSize=11;" vertex="1" parent="fCmMyijWZVC8BJxwTFxm-165">
          <mxGeometry width="54" height="22" as="geometry">
            <mxRectangle width="54" height="22" as="alternateBounds" />
          </mxGeometry>
        </mxCell>
        <mxCell id="fCmMyijWZVC8BJxwTFxm-167" value="user_id" style="shape=partialRectangle;connectable=0;fillColor=none;top=0;left=0;bottom=0;right=0;align=left;spacingLeft=2;overflow=hidden;fontSize=11;" vertex="1" parent="fCmMyijWZVC8BJxwTFxm-165">
          <mxGeometry x="54" width="105" height="22" as="geometry">
            <mxRectangle width="105" height="22" as="alternateBounds" />
          </mxGeometry>
        </mxCell>
        <mxCell id="fCmMyijWZVC8BJxwTFxm-168" style="shape=tableRow;horizontal=0;startSize=0;swimlaneHead=0;swimlaneBody=0;fillColor=none;collapsible=0;dropTarget=0;points=[[0,0.5],[1,0.5]];portConstraint=eastwest;top=0;left=0;right=0;bottom=0;" vertex="1" parent="fCmMyijWZVC8BJxwTFxm-161">
          <mxGeometry y="69" width="159" height="22" as="geometry" />
        </mxCell>
        <mxCell id="fCmMyijWZVC8BJxwTFxm-169" value="int" style="shape=partialRectangle;connectable=0;fillColor=none;top=0;left=0;bottom=0;right=0;align=left;spacingLeft=2;overflow=hidden;fontSize=11;" vertex="1" parent="fCmMyijWZVC8BJxwTFxm-168">
          <mxGeometry width="54" height="22" as="geometry">
            <mxRectangle width="54" height="22" as="alternateBounds" />
          </mxGeometry>
        </mxCell>
        <mxCell id="fCmMyijWZVC8BJxwTFxm-170" value="route_id" style="shape=partialRectangle;connectable=0;fillColor=none;top=0;left=0;bottom=0;right=0;align=left;spacingLeft=2;overflow=hidden;fontSize=11;" vertex="1" parent="fCmMyijWZVC8BJxwTFxm-168">
          <mxGeometry x="54" width="105" height="22" as="geometry">
            <mxRectangle width="105" height="22" as="alternateBounds" />
          </mxGeometry>
        </mxCell>
        <mxCell id="fCmMyijWZVC8BJxwTFxm-171" style="shape=tableRow;horizontal=0;startSize=0;swimlaneHead=0;swimlaneBody=0;fillColor=none;collapsible=0;dropTarget=0;points=[[0,0.5],[1,0.5]];portConstraint=eastwest;top=0;left=0;right=0;bottom=0;" vertex="1" parent="fCmMyijWZVC8BJxwTFxm-161">
          <mxGeometry y="91" width="159" height="22" as="geometry" />
        </mxCell>
        <mxCell id="fCmMyijWZVC8BJxwTFxm-172" value="enum" style="shape=partialRectangle;connectable=0;fillColor=none;top=0;left=0;bottom=0;right=0;align=left;spacingLeft=2;overflow=hidden;fontSize=11;" vertex="1" parent="fCmMyijWZVC8BJxwTFxm-171">
          <mxGeometry width="54" height="22" as="geometry">
            <mxRectangle width="54" height="22" as="alternateBounds" />
          </mxGeometry>
        </mxCell>
        <mxCell id="fCmMyijWZVC8BJxwTFxm-173" value="status" style="shape=partialRectangle;connectable=0;fillColor=none;top=0;left=0;bottom=0;right=0;align=left;spacingLeft=2;overflow=hidden;fontSize=11;" vertex="1" parent="fCmMyijWZVC8BJxwTFxm-171">
          <mxGeometry x="54" width="105" height="22" as="geometry">
            <mxRectangle width="105" height="22" as="alternateBounds" />
          </mxGeometry>
        </mxCell>
        <mxCell id="fCmMyijWZVC8BJxwTFxm-174" style="shape=tableRow;horizontal=0;startSize=0;swimlaneHead=0;swimlaneBody=0;fillColor=none;collapsible=0;dropTarget=0;points=[[0,0.5],[1,0.5]];portConstraint=eastwest;top=0;left=0;right=0;bottom=0;" vertex="1" parent="fCmMyijWZVC8BJxwTFxm-161">
          <mxGeometry y="113" width="159" height="22" as="geometry" />
        </mxCell>
        <mxCell id="fCmMyijWZVC8BJxwTFxm-175" value="timestamp" style="shape=partialRectangle;connectable=0;fillColor=none;top=0;left=0;bottom=0;right=0;align=left;spacingLeft=2;overflow=hidden;fontSize=11;" vertex="1" parent="fCmMyijWZVC8BJxwTFxm-174">
          <mxGeometry width="54" height="22" as="geometry">
            <mxRectangle width="54" height="22" as="alternateBounds" />
          </mxGeometry>
        </mxCell>
        <mxCell id="fCmMyijWZVC8BJxwTFxm-176" value="start_time" style="shape=partialRectangle;connectable=0;fillColor=none;top=0;left=0;bottom=0;right=0;align=left;spacingLeft=2;overflow=hidden;fontSize=11;" vertex="1" parent="fCmMyijWZVC8BJxwTFxm-174">
          <mxGeometry x="54" width="105" height="22" as="geometry">
            <mxRectangle width="105" height="22" as="alternateBounds" />
          </mxGeometry>
        </mxCell>
        <mxCell id="fCmMyijWZVC8BJxwTFxm-177" style="shape=tableRow;horizontal=0;startSize=0;swimlaneHead=0;swimlaneBody=0;fillColor=none;collapsible=0;dropTarget=0;points=[[0,0.5],[1,0.5]];portConstraint=eastwest;top=0;left=0;right=0;bottom=0;" vertex="1" parent="fCmMyijWZVC8BJxwTFxm-161">
          <mxGeometry y="135" width="159" height="22" as="geometry" />
        </mxCell>
        <mxCell id="fCmMyijWZVC8BJxwTFxm-178" value="timestamp" style="shape=partialRectangle;connectable=0;fillColor=none;top=0;left=0;bottom=0;right=0;align=left;spacingLeft=2;overflow=hidden;fontSize=11;" vertex="1" parent="fCmMyijWZVC8BJxwTFxm-177">
          <mxGeometry width="54" height="22" as="geometry">
            <mxRectangle width="54" height="22" as="alternateBounds" />
          </mxGeometry>
        </mxCell>
        <mxCell id="fCmMyijWZVC8BJxwTFxm-179" value="pause_time" style="shape=partialRectangle;connectable=0;fillColor=none;top=0;left=0;bottom=0;right=0;align=left;spacingLeft=2;overflow=hidden;fontSize=11;" vertex="1" parent="fCmMyijWZVC8BJxwTFxm-177">
          <mxGeometry x="54" width="105" height="22" as="geometry">
            <mxRectangle width="105" height="22" as="alternateBounds" />
          </mxGeometry>
        </mxCell>
        <mxCell id="fCmMyijWZVC8BJxwTFxm-180" style="shape=tableRow;horizontal=0;startSize=0;swimlaneHead=0;swimlaneBody=0;fillColor=none;collapsible=0;dropTarget=0;points=[[0,0.5],[1,0.5]];portConstraint=eastwest;top=0;left=0;right=0;bottom=0;" vertex="1" parent="fCmMyijWZVC8BJxwTFxm-161">
          <mxGeometry y="157" width="159" height="22" as="geometry" />
        </mxCell>
        <mxCell id="fCmMyijWZVC8BJxwTFxm-181" value="timestamp" style="shape=partialRectangle;connectable=0;fillColor=none;top=0;left=0;bottom=0;right=0;align=left;spacingLeft=2;overflow=hidden;fontSize=11;" vertex="1" parent="fCmMyijWZVC8BJxwTFxm-180">
          <mxGeometry width="54" height="22" as="geometry">
            <mxRectangle width="54" height="22" as="alternateBounds" />
          </mxGeometry>
        </mxCell>
        <mxCell id="fCmMyijWZVC8BJxwTFxm-182" value="end_time" style="shape=partialRectangle;connectable=0;fillColor=none;top=0;left=0;bottom=0;right=0;align=left;spacingLeft=2;overflow=hidden;fontSize=11;" vertex="1" parent="fCmMyijWZVC8BJxwTFxm-180">
          <mxGeometry x="54" width="105" height="22" as="geometry">
            <mxRectangle width="105" height="22" as="alternateBounds" />
          </mxGeometry>
        </mxCell>
        <mxCell id="fCmMyijWZVC8BJxwTFxm-183" style="shape=tableRow;horizontal=0;startSize=0;swimlaneHead=0;swimlaneBody=0;fillColor=none;collapsible=0;dropTarget=0;points=[[0,0.5],[1,0.5]];portConstraint=eastwest;top=0;left=0;right=0;bottom=0;" vertex="1" parent="fCmMyijWZVC8BJxwTFxm-161">
          <mxGeometry y="179" width="159" height="22" as="geometry" />
        </mxCell>
        <mxCell id="fCmMyijWZVC8BJxwTFxm-184" value="decimal" style="shape=partialRectangle;connectable=0;fillColor=none;top=0;left=0;bottom=0;right=0;align=left;spacingLeft=2;overflow=hidden;fontSize=11;" vertex="1" parent="fCmMyijWZVC8BJxwTFxm-183">
          <mxGeometry width="54" height="22" as="geometry">
            <mxRectangle width="54" height="22" as="alternateBounds" />
          </mxGeometry>
        </mxCell>
        <mxCell id="fCmMyijWZVC8BJxwTFxm-185" value="distance" style="shape=partialRectangle;connectable=0;fillColor=none;top=0;left=0;bottom=0;right=0;align=left;spacingLeft=2;overflow=hidden;fontSize=11;" vertex="1" parent="fCmMyijWZVC8BJxwTFxm-183">
          <mxGeometry x="54" width="105" height="22" as="geometry">
            <mxRectangle width="105" height="22" as="alternateBounds" />
          </mxGeometry>
        </mxCell>
        <mxCell id="fCmMyijWZVC8BJxwTFxm-186" style="shape=tableRow;horizontal=0;startSize=0;swimlaneHead=0;swimlaneBody=0;fillColor=none;collapsible=0;dropTarget=0;points=[[0,0.5],[1,0.5]];portConstraint=eastwest;top=0;left=0;right=0;bottom=0;" vertex="1" parent="fCmMyijWZVC8BJxwTFxm-161">
          <mxGeometry y="201" width="159" height="22" as="geometry" />
        </mxCell>
        <mxCell id="fCmMyijWZVC8BJxwTFxm-187" value="decimal" style="shape=partialRectangle;connectable=0;fillColor=none;top=0;left=0;bottom=0;right=0;align=left;spacingLeft=2;overflow=hidden;fontSize=11;" vertex="1" parent="fCmMyijWZVC8BJxwTFxm-186">
          <mxGeometry width="54" height="22" as="geometry">
            <mxRectangle width="54" height="22" as="alternateBounds" />
          </mxGeometry>
        </mxCell>
        <mxCell id="fCmMyijWZVC8BJxwTFxm-188" value="average_speed" style="shape=partialRectangle;connectable=0;fillColor=none;top=0;left=0;bottom=0;right=0;align=left;spacingLeft=2;overflow=hidden;fontSize=11;" vertex="1" parent="fCmMyijWZVC8BJxwTFxm-186">
          <mxGeometry x="54" width="105" height="22" as="geometry">
            <mxRectangle width="105" height="22" as="alternateBounds" />
          </mxGeometry>
        </mxCell>
        <mxCell id="fCmMyijWZVC8BJxwTFxm-189" style="shape=tableRow;horizontal=0;startSize=0;swimlaneHead=0;swimlaneBody=0;fillColor=none;collapsible=0;dropTarget=0;points=[[0,0.5],[1,0.5]];portConstraint=eastwest;top=0;left=0;right=0;bottom=0;" vertex="1" parent="fCmMyijWZVC8BJxwTFxm-161">
          <mxGeometry y="223" width="159" height="22" as="geometry" />
        </mxCell>
        <mxCell id="fCmMyijWZVC8BJxwTFxm-190" value="decimal" style="shape=partialRectangle;connectable=0;fillColor=none;top=0;left=0;bottom=0;right=0;align=left;spacingLeft=2;overflow=hidden;fontSize=11;" vertex="1" parent="fCmMyijWZVC8BJxwTFxm-189">
          <mxGeometry width="54" height="22" as="geometry">
            <mxRectangle width="54" height="22" as="alternateBounds" />
          </mxGeometry>
        </mxCell>
        <mxCell id="fCmMyijWZVC8BJxwTFxm-191" value="safety_score" style="shape=partialRectangle;connectable=0;fillColor=none;top=0;left=0;bottom=0;right=0;align=left;spacingLeft=2;overflow=hidden;fontSize=11;" vertex="1" parent="fCmMyijWZVC8BJxwTFxm-189">
          <mxGeometry x="54" width="105" height="22" as="geometry">
            <mxRectangle width="105" height="22" as="alternateBounds" />
          </mxGeometry>
        </mxCell>
        <mxCell id="fCmMyijWZVC8BJxwTFxm-192" value="USERS" style="shape=table;startSize=25;container=1;collapsible=0;childLayout=tableLayout;fixedRows=1;rowLines=1;fontStyle=1;align=center;resizeLast=1;" vertex="1" parent="1">
          <mxGeometry x="1251" y="619" width="169" height="289" as="geometry" />
        </mxCell>
        <mxCell id="fCmMyijWZVC8BJxwTFxm-193" style="shape=tableRow;horizontal=0;startSize=0;swimlaneHead=0;swimlaneBody=0;fillColor=none;collapsible=0;dropTarget=0;points=[[0,0.5],[1,0.5]];portConstraint=eastwest;top=0;left=0;right=0;bottom=0;" vertex="1" parent="fCmMyijWZVC8BJxwTFxm-192">
          <mxGeometry y="25" width="169" height="22" as="geometry" />
        </mxCell>
        <mxCell id="fCmMyijWZVC8BJxwTFxm-194" value="int" style="shape=partialRectangle;connectable=0;fillColor=none;top=0;left=0;bottom=0;right=0;align=left;spacingLeft=2;overflow=hidden;fontSize=11;" vertex="1" parent="fCmMyijWZVC8BJxwTFxm-193">
          <mxGeometry width="54" height="22" as="geometry">
            <mxRectangle width="54" height="22" as="alternateBounds" />
          </mxGeometry>
        </mxCell>
        <mxCell id="fCmMyijWZVC8BJxwTFxm-195" value="id" style="shape=partialRectangle;connectable=0;fillColor=none;top=0;left=0;bottom=0;right=0;align=left;spacingLeft=2;overflow=hidden;fontSize=11;" vertex="1" parent="fCmMyijWZVC8BJxwTFxm-193">
          <mxGeometry x="54" width="115" height="22" as="geometry">
            <mxRectangle width="115" height="22" as="alternateBounds" />
          </mxGeometry>
        </mxCell>
        <mxCell id="fCmMyijWZVC8BJxwTFxm-196" style="shape=tableRow;horizontal=0;startSize=0;swimlaneHead=0;swimlaneBody=0;fillColor=none;collapsible=0;dropTarget=0;points=[[0,0.5],[1,0.5]];portConstraint=eastwest;top=0;left=0;right=0;bottom=0;" vertex="1" parent="fCmMyijWZVC8BJxwTFxm-192">
          <mxGeometry y="47" width="169" height="22" as="geometry" />
        </mxCell>
        <mxCell id="fCmMyijWZVC8BJxwTFxm-197" value="varchar" style="shape=partialRectangle;connectable=0;fillColor=none;top=0;left=0;bottom=0;right=0;align=left;spacingLeft=2;overflow=hidden;fontSize=11;" vertex="1" parent="fCmMyijWZVC8BJxwTFxm-196">
          <mxGeometry width="54" height="22" as="geometry">
            <mxRectangle width="54" height="22" as="alternateBounds" />
          </mxGeometry>
        </mxCell>
        <mxCell id="fCmMyijWZVC8BJxwTFxm-198" value="name" style="shape=partialRectangle;connectable=0;fillColor=none;top=0;left=0;bottom=0;right=0;align=left;spacingLeft=2;overflow=hidden;fontSize=11;" vertex="1" parent="fCmMyijWZVC8BJxwTFxm-196">
          <mxGeometry x="54" width="115" height="22" as="geometry">
            <mxRectangle width="115" height="22" as="alternateBounds" />
          </mxGeometry>
        </mxCell>
        <mxCell id="fCmMyijWZVC8BJxwTFxm-199" style="shape=tableRow;horizontal=0;startSize=0;swimlaneHead=0;swimlaneBody=0;fillColor=none;collapsible=0;dropTarget=0;points=[[0,0.5],[1,0.5]];portConstraint=eastwest;top=0;left=0;right=0;bottom=0;" vertex="1" parent="fCmMyijWZVC8BJxwTFxm-192">
          <mxGeometry y="69" width="169" height="22" as="geometry" />
        </mxCell>
        <mxCell id="fCmMyijWZVC8BJxwTFxm-200" value="varchar" style="shape=partialRectangle;connectable=0;fillColor=none;top=0;left=0;bottom=0;right=0;align=left;spacingLeft=2;overflow=hidden;fontSize=11;" vertex="1" parent="fCmMyijWZVC8BJxwTFxm-199">
          <mxGeometry width="54" height="22" as="geometry">
            <mxRectangle width="54" height="22" as="alternateBounds" />
          </mxGeometry>
        </mxCell>
        <mxCell id="fCmMyijWZVC8BJxwTFxm-201" value="email" style="shape=partialRectangle;connectable=0;fillColor=none;top=0;left=0;bottom=0;right=0;align=left;spacingLeft=2;overflow=hidden;fontSize=11;" vertex="1" parent="fCmMyijWZVC8BJxwTFxm-199">
          <mxGeometry x="54" width="115" height="22" as="geometry">
            <mxRectangle width="115" height="22" as="alternateBounds" />
          </mxGeometry>
        </mxCell>
        <mxCell id="fCmMyijWZVC8BJxwTFxm-202" style="shape=tableRow;horizontal=0;startSize=0;swimlaneHead=0;swimlaneBody=0;fillColor=none;collapsible=0;dropTarget=0;points=[[0,0.5],[1,0.5]];portConstraint=eastwest;top=0;left=0;right=0;bottom=0;" vertex="1" parent="fCmMyijWZVC8BJxwTFxm-192">
          <mxGeometry y="91" width="169" height="22" as="geometry" />
        </mxCell>
        <mxCell id="fCmMyijWZVC8BJxwTFxm-203" value="varchar" style="shape=partialRectangle;connectable=0;fillColor=none;top=0;left=0;bottom=0;right=0;align=left;spacingLeft=2;overflow=hidden;fontSize=11;" vertex="1" parent="fCmMyijWZVC8BJxwTFxm-202">
          <mxGeometry width="54" height="22" as="geometry">
            <mxRectangle width="54" height="22" as="alternateBounds" />
          </mxGeometry>
        </mxCell>
        <mxCell id="fCmMyijWZVC8BJxwTFxm-204" value="password" style="shape=partialRectangle;connectable=0;fillColor=none;top=0;left=0;bottom=0;right=0;align=left;spacingLeft=2;overflow=hidden;fontSize=11;" vertex="1" parent="fCmMyijWZVC8BJxwTFxm-202">
          <mxGeometry x="54" width="115" height="22" as="geometry">
            <mxRectangle width="115" height="22" as="alternateBounds" />
          </mxGeometry>
        </mxCell>
        <mxCell id="fCmMyijWZVC8BJxwTFxm-205" style="shape=tableRow;horizontal=0;startSize=0;swimlaneHead=0;swimlaneBody=0;fillColor=none;collapsible=0;dropTarget=0;points=[[0,0.5],[1,0.5]];portConstraint=eastwest;top=0;left=0;right=0;bottom=0;" vertex="1" parent="fCmMyijWZVC8BJxwTFxm-192">
          <mxGeometry y="113" width="169" height="22" as="geometry" />
        </mxCell>
        <mxCell id="fCmMyijWZVC8BJxwTFxm-206" value="enum" style="shape=partialRectangle;connectable=0;fillColor=none;top=0;left=0;bottom=0;right=0;align=left;spacingLeft=2;overflow=hidden;fontSize=11;" vertex="1" parent="fCmMyijWZVC8BJxwTFxm-205">
          <mxGeometry width="54" height="22" as="geometry">
            <mxRectangle width="54" height="22" as="alternateBounds" />
          </mxGeometry>
        </mxCell>
        <mxCell id="fCmMyijWZVC8BJxwTFxm-207" value="role" style="shape=partialRectangle;connectable=0;fillColor=none;top=0;left=0;bottom=0;right=0;align=left;spacingLeft=2;overflow=hidden;fontSize=11;" vertex="1" parent="fCmMyijWZVC8BJxwTFxm-205">
          <mxGeometry x="54" width="115" height="22" as="geometry">
            <mxRectangle width="115" height="22" as="alternateBounds" />
          </mxGeometry>
        </mxCell>
        <mxCell id="fCmMyijWZVC8BJxwTFxm-208" style="shape=tableRow;horizontal=0;startSize=0;swimlaneHead=0;swimlaneBody=0;fillColor=none;collapsible=0;dropTarget=0;points=[[0,0.5],[1,0.5]];portConstraint=eastwest;top=0;left=0;right=0;bottom=0;" vertex="1" parent="fCmMyijWZVC8BJxwTFxm-192">
          <mxGeometry y="135" width="169" height="22" as="geometry" />
        </mxCell>
        <mxCell id="fCmMyijWZVC8BJxwTFxm-209" value="timestamp" style="shape=partialRectangle;connectable=0;fillColor=none;top=0;left=0;bottom=0;right=0;align=left;spacingLeft=2;overflow=hidden;fontSize=11;" vertex="1" parent="fCmMyijWZVC8BJxwTFxm-208">
          <mxGeometry width="54" height="22" as="geometry">
            <mxRectangle width="54" height="22" as="alternateBounds" />
          </mxGeometry>
        </mxCell>
        <mxCell id="fCmMyijWZVC8BJxwTFxm-210" value="created_at" style="shape=partialRectangle;connectable=0;fillColor=none;top=0;left=0;bottom=0;right=0;align=left;spacingLeft=2;overflow=hidden;fontSize=11;" vertex="1" parent="fCmMyijWZVC8BJxwTFxm-208">
          <mxGeometry x="54" width="115" height="22" as="geometry">
            <mxRectangle width="115" height="22" as="alternateBounds" />
          </mxGeometry>
        </mxCell>
        <mxCell id="fCmMyijWZVC8BJxwTFxm-211" style="shape=tableRow;horizontal=0;startSize=0;swimlaneHead=0;swimlaneBody=0;fillColor=none;collapsible=0;dropTarget=0;points=[[0,0.5],[1,0.5]];portConstraint=eastwest;top=0;left=0;right=0;bottom=0;" vertex="1" parent="fCmMyijWZVC8BJxwTFxm-192">
          <mxGeometry y="157" width="169" height="22" as="geometry" />
        </mxCell>
        <mxCell id="fCmMyijWZVC8BJxwTFxm-212" value="timestamp" style="shape=partialRectangle;connectable=0;fillColor=none;top=0;left=0;bottom=0;right=0;align=left;spacingLeft=2;overflow=hidden;fontSize=11;" vertex="1" parent="fCmMyijWZVC8BJxwTFxm-211">
          <mxGeometry width="54" height="22" as="geometry">
            <mxRectangle width="54" height="22" as="alternateBounds" />
          </mxGeometry>
        </mxCell>
        <mxCell id="fCmMyijWZVC8BJxwTFxm-213" value="updated_at" style="shape=partialRectangle;connectable=0;fillColor=none;top=0;left=0;bottom=0;right=0;align=left;spacingLeft=2;overflow=hidden;fontSize=11;" vertex="1" parent="fCmMyijWZVC8BJxwTFxm-211">
          <mxGeometry x="54" width="115" height="22" as="geometry">
            <mxRectangle width="115" height="22" as="alternateBounds" />
          </mxGeometry>
        </mxCell>
        <mxCell id="fCmMyijWZVC8BJxwTFxm-214" style="shape=tableRow;horizontal=0;startSize=0;swimlaneHead=0;swimlaneBody=0;fillColor=none;collapsible=0;dropTarget=0;points=[[0,0.5],[1,0.5]];portConstraint=eastwest;top=0;left=0;right=0;bottom=0;" vertex="1" parent="fCmMyijWZVC8BJxwTFxm-192">
          <mxGeometry y="179" width="169" height="22" as="geometry" />
        </mxCell>
        <mxCell id="fCmMyijWZVC8BJxwTFxm-215" value="varchar" style="shape=partialRectangle;connectable=0;fillColor=none;top=0;left=0;bottom=0;right=0;align=left;spacingLeft=2;overflow=hidden;fontSize=11;" vertex="1" parent="fCmMyijWZVC8BJxwTFxm-214">
          <mxGeometry width="54" height="22" as="geometry">
            <mxRectangle width="54" height="22" as="alternateBounds" />
          </mxGeometry>
        </mxCell>
        <mxCell id="fCmMyijWZVC8BJxwTFxm-216" value="phone" style="shape=partialRectangle;connectable=0;fillColor=none;top=0;left=0;bottom=0;right=0;align=left;spacingLeft=2;overflow=hidden;fontSize=11;" vertex="1" parent="fCmMyijWZVC8BJxwTFxm-214">
          <mxGeometry x="54" width="115" height="22" as="geometry">
            <mxRectangle width="115" height="22" as="alternateBounds" />
          </mxGeometry>
        </mxCell>
        <mxCell id="fCmMyijWZVC8BJxwTFxm-217" style="shape=tableRow;horizontal=0;startSize=0;swimlaneHead=0;swimlaneBody=0;fillColor=none;collapsible=0;dropTarget=0;points=[[0,0.5],[1,0.5]];portConstraint=eastwest;top=0;left=0;right=0;bottom=0;" vertex="1" parent="fCmMyijWZVC8BJxwTFxm-192">
          <mxGeometry y="201" width="169" height="22" as="geometry" />
        </mxCell>
        <mxCell id="fCmMyijWZVC8BJxwTFxm-218" value="enum" style="shape=partialRectangle;connectable=0;fillColor=none;top=0;left=0;bottom=0;right=0;align=left;spacingLeft=2;overflow=hidden;fontSize=11;" vertex="1" parent="fCmMyijWZVC8BJxwTFxm-217">
          <mxGeometry width="54" height="22" as="geometry">
            <mxRectangle width="54" height="22" as="alternateBounds" />
          </mxGeometry>
        </mxCell>
        <mxCell id="fCmMyijWZVC8BJxwTFxm-219" value="approval_status" style="shape=partialRectangle;connectable=0;fillColor=none;top=0;left=0;bottom=0;right=0;align=left;spacingLeft=2;overflow=hidden;fontSize=11;" vertex="1" parent="fCmMyijWZVC8BJxwTFxm-217">
          <mxGeometry x="54" width="115" height="22" as="geometry">
            <mxRectangle width="115" height="22" as="alternateBounds" />
          </mxGeometry>
        </mxCell>
        <mxCell id="fCmMyijWZVC8BJxwTFxm-220" style="shape=tableRow;horizontal=0;startSize=0;swimlaneHead=0;swimlaneBody=0;fillColor=none;collapsible=0;dropTarget=0;points=[[0,0.5],[1,0.5]];portConstraint=eastwest;top=0;left=0;right=0;bottom=0;" vertex="1" parent="fCmMyijWZVC8BJxwTFxm-192">
          <mxGeometry y="223" width="169" height="22" as="geometry" />
        </mxCell>
        <mxCell id="fCmMyijWZVC8BJxwTFxm-221" value="text" style="shape=partialRectangle;connectable=0;fillColor=none;top=0;left=0;bottom=0;right=0;align=left;spacingLeft=2;overflow=hidden;fontSize=11;" vertex="1" parent="fCmMyijWZVC8BJxwTFxm-220">
          <mxGeometry width="54" height="22" as="geometry">
            <mxRectangle width="54" height="22" as="alternateBounds" />
          </mxGeometry>
        </mxCell>
        <mxCell id="fCmMyijWZVC8BJxwTFxm-222" value="address" style="shape=partialRectangle;connectable=0;fillColor=none;top=0;left=0;bottom=0;right=0;align=left;spacingLeft=2;overflow=hidden;fontSize=11;" vertex="1" parent="fCmMyijWZVC8BJxwTFxm-220">
          <mxGeometry x="54" width="115" height="22" as="geometry">
            <mxRectangle width="115" height="22" as="alternateBounds" />
          </mxGeometry>
        </mxCell>
        <mxCell id="fCmMyijWZVC8BJxwTFxm-223" style="shape=tableRow;horizontal=0;startSize=0;swimlaneHead=0;swimlaneBody=0;fillColor=none;collapsible=0;dropTarget=0;points=[[0,0.5],[1,0.5]];portConstraint=eastwest;top=0;left=0;right=0;bottom=0;" vertex="1" parent="fCmMyijWZVC8BJxwTFxm-192">
          <mxGeometry y="245" width="169" height="22" as="geometry" />
        </mxCell>
        <mxCell id="fCmMyijWZVC8BJxwTFxm-224" value="text" style="shape=partialRectangle;connectable=0;fillColor=none;top=0;left=0;bottom=0;right=0;align=left;spacingLeft=2;overflow=hidden;fontSize=11;" vertex="1" parent="fCmMyijWZVC8BJxwTFxm-223">
          <mxGeometry width="54" height="22" as="geometry">
            <mxRectangle width="54" height="22" as="alternateBounds" />
          </mxGeometry>
        </mxCell>
        <mxCell id="fCmMyijWZVC8BJxwTFxm-225" value="rejection_reason" style="shape=partialRectangle;connectable=0;fillColor=none;top=0;left=0;bottom=0;right=0;align=left;spacingLeft=2;overflow=hidden;fontSize=11;" vertex="1" parent="fCmMyijWZVC8BJxwTFxm-223">
          <mxGeometry x="54" width="115" height="22" as="geometry">
            <mxRectangle width="115" height="22" as="alternateBounds" />
          </mxGeometry>
        </mxCell>
        <mxCell id="fCmMyijWZVC8BJxwTFxm-226" style="shape=tableRow;horizontal=0;startSize=0;swimlaneHead=0;swimlaneBody=0;fillColor=none;collapsible=0;dropTarget=0;points=[[0,0.5],[1,0.5]];portConstraint=eastwest;top=0;left=0;right=0;bottom=0;" vertex="1" parent="fCmMyijWZVC8BJxwTFxm-192">
          <mxGeometry y="267" width="169" height="22" as="geometry" />
        </mxCell>
        <mxCell id="fCmMyijWZVC8BJxwTFxm-227" value="varchar" style="shape=partialRectangle;connectable=0;fillColor=none;top=0;left=0;bottom=0;right=0;align=left;spacingLeft=2;overflow=hidden;fontSize=11;" vertex="1" parent="fCmMyijWZVC8BJxwTFxm-226">
          <mxGeometry width="54" height="22" as="geometry">
            <mxRectangle width="54" height="22" as="alternateBounds" />
          </mxGeometry>
        </mxCell>
        <mxCell id="fCmMyijWZVC8BJxwTFxm-228" value="photo" style="shape=partialRectangle;connectable=0;fillColor=none;top=0;left=0;bottom=0;right=0;align=left;spacingLeft=2;overflow=hidden;fontSize=11;" vertex="1" parent="fCmMyijWZVC8BJxwTFxm-226">
          <mxGeometry x="54" width="115" height="22" as="geometry">
            <mxRectangle width="115" height="22" as="alternateBounds" />
          </mxGeometry>
        </mxCell>
        <mxCell id="fCmMyijWZVC8BJxwTFxm-229" value="WAYPOINTS" style="shape=table;startSize=25;container=1;collapsible=0;childLayout=tableLayout;fixedRows=1;rowLines=1;fontStyle=1;align=center;resizeLast=1;" vertex="1" parent="1">
          <mxGeometry x="739" y="674" width="142" height="179" as="geometry" />
        </mxCell>
        <mxCell id="fCmMyijWZVC8BJxwTFxm-230" style="shape=tableRow;horizontal=0;startSize=0;swimlaneHead=0;swimlaneBody=0;fillColor=none;collapsible=0;dropTarget=0;points=[[0,0.5],[1,0.5]];portConstraint=eastwest;top=0;left=0;right=0;bottom=0;" vertex="1" parent="fCmMyijWZVC8BJxwTFxm-229">
          <mxGeometry y="25" width="142" height="22" as="geometry" />
        </mxCell>
        <mxCell id="fCmMyijWZVC8BJxwTFxm-231" value="int" style="shape=partialRectangle;connectable=0;fillColor=none;top=0;left=0;bottom=0;right=0;align=left;spacingLeft=2;overflow=hidden;fontSize=11;" vertex="1" parent="fCmMyijWZVC8BJxwTFxm-230">
          <mxGeometry width="54" height="22" as="geometry">
            <mxRectangle width="54" height="22" as="alternateBounds" />
          </mxGeometry>
        </mxCell>
        <mxCell id="fCmMyijWZVC8BJxwTFxm-232" value="id" style="shape=partialRectangle;connectable=0;fillColor=none;top=0;left=0;bottom=0;right=0;align=left;spacingLeft=2;overflow=hidden;fontSize=11;" vertex="1" parent="fCmMyijWZVC8BJxwTFxm-230">
          <mxGeometry x="54" width="88" height="22" as="geometry">
            <mxRectangle width="88" height="22" as="alternateBounds" />
          </mxGeometry>
        </mxCell>
        <mxCell id="fCmMyijWZVC8BJxwTFxm-233" style="shape=tableRow;horizontal=0;startSize=0;swimlaneHead=0;swimlaneBody=0;fillColor=none;collapsible=0;dropTarget=0;points=[[0,0.5],[1,0.5]];portConstraint=eastwest;top=0;left=0;right=0;bottom=0;" vertex="1" parent="fCmMyijWZVC8BJxwTFxm-229">
          <mxGeometry y="47" width="142" height="22" as="geometry" />
        </mxCell>
        <mxCell id="fCmMyijWZVC8BJxwTFxm-234" value="varchar" style="shape=partialRectangle;connectable=0;fillColor=none;top=0;left=0;bottom=0;right=0;align=left;spacingLeft=2;overflow=hidden;fontSize=11;" vertex="1" parent="fCmMyijWZVC8BJxwTFxm-233">
          <mxGeometry width="54" height="22" as="geometry">
            <mxRectangle width="54" height="22" as="alternateBounds" />
          </mxGeometry>
        </mxCell>
        <mxCell id="fCmMyijWZVC8BJxwTFxm-235" value="name" style="shape=partialRectangle;connectable=0;fillColor=none;top=0;left=0;bottom=0;right=0;align=left;spacingLeft=2;overflow=hidden;fontSize=11;" vertex="1" parent="fCmMyijWZVC8BJxwTFxm-233">
          <mxGeometry x="54" width="88" height="22" as="geometry">
            <mxRectangle width="88" height="22" as="alternateBounds" />
          </mxGeometry>
        </mxCell>
        <mxCell id="fCmMyijWZVC8BJxwTFxm-236" style="shape=tableRow;horizontal=0;startSize=0;swimlaneHead=0;swimlaneBody=0;fillColor=none;collapsible=0;dropTarget=0;points=[[0,0.5],[1,0.5]];portConstraint=eastwest;top=0;left=0;right=0;bottom=0;" vertex="1" parent="fCmMyijWZVC8BJxwTFxm-229">
          <mxGeometry y="69" width="142" height="22" as="geometry" />
        </mxCell>
        <mxCell id="fCmMyijWZVC8BJxwTFxm-237" value="decimal" style="shape=partialRectangle;connectable=0;fillColor=none;top=0;left=0;bottom=0;right=0;align=left;spacingLeft=2;overflow=hidden;fontSize=11;" vertex="1" parent="fCmMyijWZVC8BJxwTFxm-236">
          <mxGeometry width="54" height="22" as="geometry">
            <mxRectangle width="54" height="22" as="alternateBounds" />
          </mxGeometry>
        </mxCell>
        <mxCell id="fCmMyijWZVC8BJxwTFxm-238" value="latitude" style="shape=partialRectangle;connectable=0;fillColor=none;top=0;left=0;bottom=0;right=0;align=left;spacingLeft=2;overflow=hidden;fontSize=11;" vertex="1" parent="fCmMyijWZVC8BJxwTFxm-236">
          <mxGeometry x="54" width="88" height="22" as="geometry">
            <mxRectangle width="88" height="22" as="alternateBounds" />
          </mxGeometry>
        </mxCell>
        <mxCell id="fCmMyijWZVC8BJxwTFxm-239" style="shape=tableRow;horizontal=0;startSize=0;swimlaneHead=0;swimlaneBody=0;fillColor=none;collapsible=0;dropTarget=0;points=[[0,0.5],[1,0.5]];portConstraint=eastwest;top=0;left=0;right=0;bottom=0;" vertex="1" parent="fCmMyijWZVC8BJxwTFxm-229">
          <mxGeometry y="91" width="142" height="22" as="geometry" />
        </mxCell>
        <mxCell id="fCmMyijWZVC8BJxwTFxm-240" value="decimal" style="shape=partialRectangle;connectable=0;fillColor=none;top=0;left=0;bottom=0;right=0;align=left;spacingLeft=2;overflow=hidden;fontSize=11;" vertex="1" parent="fCmMyijWZVC8BJxwTFxm-239">
          <mxGeometry width="54" height="22" as="geometry">
            <mxRectangle width="54" height="22" as="alternateBounds" />
          </mxGeometry>
        </mxCell>
        <mxCell id="fCmMyijWZVC8BJxwTFxm-241" value="longitude" style="shape=partialRectangle;connectable=0;fillColor=none;top=0;left=0;bottom=0;right=0;align=left;spacingLeft=2;overflow=hidden;fontSize=11;" vertex="1" parent="fCmMyijWZVC8BJxwTFxm-239">
          <mxGeometry x="54" width="88" height="22" as="geometry">
            <mxRectangle width="88" height="22" as="alternateBounds" />
          </mxGeometry>
        </mxCell>
        <mxCell id="fCmMyijWZVC8BJxwTFxm-242" style="shape=tableRow;horizontal=0;startSize=0;swimlaneHead=0;swimlaneBody=0;fillColor=none;collapsible=0;dropTarget=0;points=[[0,0.5],[1,0.5]];portConstraint=eastwest;top=0;left=0;right=0;bottom=0;" vertex="1" parent="fCmMyijWZVC8BJxwTFxm-229">
          <mxGeometry y="113" width="142" height="22" as="geometry" />
        </mxCell>
        <mxCell id="fCmMyijWZVC8BJxwTFxm-243" value="enum" style="shape=partialRectangle;connectable=0;fillColor=none;top=0;left=0;bottom=0;right=0;align=left;spacingLeft=2;overflow=hidden;fontSize=11;" vertex="1" parent="fCmMyijWZVC8BJxwTFxm-242">
          <mxGeometry width="54" height="22" as="geometry">
            <mxRectangle width="54" height="22" as="alternateBounds" />
          </mxGeometry>
        </mxCell>
        <mxCell id="fCmMyijWZVC8BJxwTFxm-244" value="type" style="shape=partialRectangle;connectable=0;fillColor=none;top=0;left=0;bottom=0;right=0;align=left;spacingLeft=2;overflow=hidden;fontSize=11;" vertex="1" parent="fCmMyijWZVC8BJxwTFxm-242">
          <mxGeometry x="54" width="88" height="22" as="geometry">
            <mxRectangle width="88" height="22" as="alternateBounds" />
          </mxGeometry>
        </mxCell>
        <mxCell id="fCmMyijWZVC8BJxwTFxm-245" style="shape=tableRow;horizontal=0;startSize=0;swimlaneHead=0;swimlaneBody=0;fillColor=none;collapsible=0;dropTarget=0;points=[[0,0.5],[1,0.5]];portConstraint=eastwest;top=0;left=0;right=0;bottom=0;" vertex="1" parent="fCmMyijWZVC8BJxwTFxm-229">
          <mxGeometry y="135" width="142" height="22" as="geometry" />
        </mxCell>
        <mxCell id="fCmMyijWZVC8BJxwTFxm-246" value="text" style="shape=partialRectangle;connectable=0;fillColor=none;top=0;left=0;bottom=0;right=0;align=left;spacingLeft=2;overflow=hidden;fontSize=11;" vertex="1" parent="fCmMyijWZVC8BJxwTFxm-245">
          <mxGeometry width="54" height="22" as="geometry">
            <mxRectangle width="54" height="22" as="alternateBounds" />
          </mxGeometry>
        </mxCell>
        <mxCell id="fCmMyijWZVC8BJxwTFxm-247" value="description" style="shape=partialRectangle;connectable=0;fillColor=none;top=0;left=0;bottom=0;right=0;align=left;spacingLeft=2;overflow=hidden;fontSize=11;" vertex="1" parent="fCmMyijWZVC8BJxwTFxm-245">
          <mxGeometry x="54" width="88" height="22" as="geometry">
            <mxRectangle width="88" height="22" as="alternateBounds" />
          </mxGeometry>
        </mxCell>
        <mxCell id="fCmMyijWZVC8BJxwTFxm-248" style="shape=tableRow;horizontal=0;startSize=0;swimlaneHead=0;swimlaneBody=0;fillColor=none;collapsible=0;dropTarget=0;points=[[0,0.5],[1,0.5]];portConstraint=eastwest;top=0;left=0;right=0;bottom=0;" vertex="1" parent="fCmMyijWZVC8BJxwTFxm-229">
          <mxGeometry y="157" width="142" height="22" as="geometry" />
        </mxCell>
        <mxCell id="fCmMyijWZVC8BJxwTFxm-249" value="timestamp" style="shape=partialRectangle;connectable=0;fillColor=none;top=0;left=0;bottom=0;right=0;align=left;spacingLeft=2;overflow=hidden;fontSize=11;" vertex="1" parent="fCmMyijWZVC8BJxwTFxm-248">
          <mxGeometry width="54" height="22" as="geometry">
            <mxRectangle width="54" height="22" as="alternateBounds" />
          </mxGeometry>
        </mxCell>
        <mxCell id="fCmMyijWZVC8BJxwTFxm-250" value="created_at" style="shape=partialRectangle;connectable=0;fillColor=none;top=0;left=0;bottom=0;right=0;align=left;spacingLeft=2;overflow=hidden;fontSize=11;" vertex="1" parent="fCmMyijWZVC8BJxwTFxm-248">
          <mxGeometry x="54" width="88" height="22" as="geometry">
            <mxRectangle width="88" height="22" as="alternateBounds" />
          </mxGeometry>
        </mxCell>
        <mxCell id="fCmMyijWZVC8BJxwTFxm-251" value="belongs_to" style="curved=1;dashed=1;startArrow=ERoneToMany;startSize=10;;endArrow=ERmandOne;endSize=10;;exitX=0.5;exitY=1;entryX=0.5;entryY=0;rounded=0;" edge="1" parent="1" source="fCmMyijWZVC8BJxwTFxm-11" target="fCmMyijWZVC8BJxwTFxm-1">
          <mxGeometry relative="1" as="geometry">
            <Array as="points" />
          </mxGeometry>
        </mxCell>
        <mxCell id="fCmMyijWZVC8BJxwTFxm-252" value="belongs_to" style="curved=1;dashed=1;startArrow=ERoneToMany;startSize=10;;endArrow=ERmandOne;endSize=10;;exitX=0.5;exitY=1;entryX=0.5;entryY=0;rounded=0;" edge="1" parent="1" source="fCmMyijWZVC8BJxwTFxm-46" target="fCmMyijWZVC8BJxwTFxm-27">
          <mxGeometry relative="1" as="geometry">
            <Array as="points" />
          </mxGeometry>
        </mxCell>
        <mxCell id="fCmMyijWZVC8BJxwTFxm-253" value="belongs_to" style="curved=1;dashed=1;startArrow=ERoneToMany;startSize=10;;endArrow=ERmandOne;endSize=10;;exitX=0.5;exitY=1;entryX=0.5;entryY=0;rounded=0;" edge="1" parent="1" source="fCmMyijWZVC8BJxwTFxm-62" target="fCmMyijWZVC8BJxwTFxm-161">
          <mxGeometry relative="1" as="geometry">
            <Array as="points" />
          </mxGeometry>
        </mxCell>
        <mxCell id="fCmMyijWZVC8BJxwTFxm-254" value="belongs_to" style="curved=1;dashed=1;startArrow=ERoneToMany;startSize=10;;endArrow=ERmandOne;endSize=10;;exitX=0.5;exitY=1;entryX=0.5;entryY=-0.01;rounded=0;" edge="1" parent="1" source="fCmMyijWZVC8BJxwTFxm-85" target="fCmMyijWZVC8BJxwTFxm-78">
          <mxGeometry relative="1" as="geometry">
            <Array as="points" />
          </mxGeometry>
        </mxCell>
        <mxCell id="fCmMyijWZVC8BJxwTFxm-255" value="belongs_to" style="curved=1;dashed=1;startArrow=ERoneToMany;startSize=10;;endArrow=ERmandOne;endSize=10;;exitX=0.91;exitY=1;entryX=0.36;entryY=0;rounded=0;" edge="1" parent="1" source="fCmMyijWZVC8BJxwTFxm-126" target="fCmMyijWZVC8BJxwTFxm-104">
          <mxGeometry relative="1" as="geometry">
            <Array as="points">
              <mxPoint x="1016" y="569" />
            </Array>
          </mxGeometry>
        </mxCell>
        <mxCell id="fCmMyijWZVC8BJxwTFxm-256" value="linked_to" style="curved=1;dashed=1;startArrow=ERoneToMany;startSize=10;;endArrow=ERmandOne;endSize=10;;exitX=0.25;exitY=1;entryX=0.5;entryY=0;rounded=0;" edge="1" parent="1" source="fCmMyijWZVC8BJxwTFxm-126" target="fCmMyijWZVC8BJxwTFxm-229">
          <mxGeometry relative="1" as="geometry">
            <Array as="points">
              <mxPoint x="811" y="569" />
            </Array>
          </mxGeometry>
        </mxCell>
        <mxCell id="fCmMyijWZVC8BJxwTFxm-257" value="belongs_to" style="curved=1;dashed=1;startArrow=ERoneToMany;startSize=10;;endArrow=ERmandOne;endSize=10;;exitX=0.88;exitY=1;entryX=0.5;entryY=0;rounded=0;" edge="1" parent="1" source="fCmMyijWZVC8BJxwTFxm-161" target="fCmMyijWZVC8BJxwTFxm-192">
          <mxGeometry relative="1" as="geometry">
            <Array as="points">
              <mxPoint x="1335" y="569" />
            </Array>
          </mxGeometry>
        </mxCell>
        <mxCell id="fCmMyijWZVC8BJxwTFxm-258" value="belongs_to" style="curved=1;dashed=1;startArrow=ERoneToMany;startSize=10;;endArrow=ERmandOne;endSize=10;;exitX=0;exitY=0.91;entryX=0.63;entryY=0;rounded=0;" edge="1" parent="1" source="fCmMyijWZVC8BJxwTFxm-161" target="fCmMyijWZVC8BJxwTFxm-104">
          <mxGeometry relative="1" as="geometry">
            <Array as="points">
              <mxPoint x="1116" y="569" />
            </Array>
          </mxGeometry>
        </mxCell>
      </root>
    </mxGraphModel>
  </diagram>
</mxfile>
